<?xml version="1.0" standalone="no"?>
<!DOCTYPE svg PUBLIC "-//W3C//DTD SVG 20010904//EN"
 "http://www.w3.org/TR/2001/REC-SVG-20010904/DTD/svg10.dtd">
<svg version="1.0" xmlns="http://www.w3.org/2000/svg"
 width="1280.000000pt" height="1280.000000pt" viewBox="0 0 1280.000000 1280.000000"
 preserveAspectRatio="xMidYMid meet">
<metadata>
Created by potrace 1.15, written by Peter Selinger 2001-2017
</metadata>
<g transform="translate(0.000000,1280.000000) scale(0.100000,-0.100000)"
fill="#000000" stroke="none">
<path d="M5876 12345 c-37 -20 -53 -41 -61 -85 -11 -57 -18 -61 -109 -54 -74
6 -84 4 -116 -18 -19 -13 -44 -40 -55 -60 -17 -33 -18 -41 -7 -80 26 -83 26
-95 2 -108 -12 -6 -46 -20 -76 -30 -30 -11 -69 -30 -87 -44 -25 -19 -46 -26
-80 -26 -25 0 -70 -9 -98 -21 -29 -11 -66 -19 -82 -17 -26 3 -32 9 -43 46 -20
68 -71 112 -130 112 -42 0 -109 -37 -139 -76 -32 -42 -71 -46 -104 -10 -60 64
-175 28 -206 -65 -10 -28 -22 -37 -80 -61 -111 -46 -138 -86 -114 -167 12 -41
12 -41 -25 -74 -51 -45 -55 -80 -17 -137 18 -26 31 -58 31 -76 0 -51 39 -97
90 -109 25 -5 56 -18 70 -27 13 -10 35 -18 48 -18 23 0 72 40 72 60 0 6 20 19
45 30 46 20 48 24 45 72 -1 19 6 32 24 43 33 22 33 56 1 91 -26 28 -32 44 -16
44 16 0 23 38 11 60 -13 25 -51 26 -73 2 -14 -15 -15 -24 -5 -54 15 -49 4 -77
-43 -115 -45 -36 -73 -41 -107 -17 -18 12 -22 25 -22 70 0 46 4 57 26 77 15
12 37 39 50 59 13 20 34 39 46 43 13 4 59 23 102 42 72 32 83 35 112 24 22 -8
62 -10 123 -5 l90 7 18 -39 c14 -30 31 -46 73 -66 30 -16 69 -28 88 -28 18 0
42 -5 52 -10 16 -9 17 -15 8 -41 -9 -25 -6 -39 15 -87 14 -31 28 -68 32 -80 7
-24 58 -52 94 -52 17 0 16 -4 -10 -29 -17 -17 -29 -40 -29 -55 0 -14 -9 -49
-20 -77 -15 -38 -19 -63 -14 -94 7 -52 -3 -60 -54 -44 -33 9 -45 9 -73 -5 -44
-21 -119 -124 -119 -162 0 -44 33 -90 75 -104 26 -8 35 -16 31 -27 -3 -8 -6
-17 -6 -19 0 -10 -47 -2 -64 11 -26 20 -61 19 -97 -2 -23 -14 -34 -32 -49 -84
-31 -103 -28 -125 24 -173 l44 -41 -38 -17 c-24 -10 -45 -28 -56 -49 -9 -19
-32 -52 -50 -73 -19 -22 -34 -49 -34 -60 0 -43 -15 -48 -45 -16 -16 16 -37 30
-47 30 -46 0 -145 -35 -173 -62 -39 -36 -59 -35 -87 3 -12 16 -48 43 -79 59
-48 24 -62 27 -94 20 -21 -5 -43 -6 -50 -4 -7 3 -34 37 -59 75 -25 38 -48 69
-51 69 -3 0 9 -27 25 -61 53 -104 53 -105 21 -141 -35 -41 -49 -144 -25 -190
21 -41 10 -66 -34 -77 -24 -7 -58 -31 -96 -70 -56 -56 -58 -61 -52 -96 4 -20
10 -43 13 -52 5 -13 1 -12 -27 2 -29 15 -41 16 -83 6 -27 -6 -67 -11 -89 -11
-24 0 -55 -9 -74 -21 -33 -20 -40 -17 -35 14 2 15 -27 73 -46 90 -22 19 -118
47 -163 47 -47 0 -83 -39 -89 -96 -5 -42 -9 -49 -30 -52 -22 -4 -24 -1 -18 33
8 47 -12 98 -47 120 -21 14 -39 16 -98 10 -104 -10 -136 -33 -152 -107 -8 -35
-35 -36 -66 -3 -14 15 -35 25 -52 25 -15 0 -55 9 -88 21 -48 16 -67 19 -90 10
-35 -12 -35 -10 -14 31 19 37 14 51 -51 137 -33 44 -56 64 -76 68 -33 6 -39
34 -15 68 7 11 16 52 20 91 6 62 4 73 -14 96 -11 14 -20 34 -20 43 0 9 23 49
50 89 29 42 50 83 50 99 0 21 15 37 77 84 101 76 113 82 147 83 16 0 46 5 68
12 36 10 44 9 84 -13 79 -43 69 -106 -21 -140 -66 -25 -69 -25 -114 16 -35 32
-42 34 -64 24 -14 -6 -28 -18 -31 -25 -13 -33 28 -70 63 -59 15 4 22 -2 31
-29 16 -50 34 -61 74 -49 28 9 39 7 65 -9 l32 -20 37 26 c21 14 52 26 69 26
52 0 80 32 86 98 3 31 9 74 12 95 7 35 4 40 -44 88 -28 27 -51 57 -51 65 0 9
-13 29 -29 45 -32 32 -79 38 -125 18 -23 -11 -30 -8 -66 25 -61 55 -107 49
-200 -29 -41 -34 -47 -36 -91 -30 -57 8 -109 -13 -140 -57 -18 -25 -20 -38
-15 -87 8 -69 0 -79 -72 -92 -55 -11 -88 -32 -120 -80 -31 -45 -26 -105 14
-155 54 -67 54 -61 -12 -122 -34 -32 -69 -72 -78 -90 -12 -23 -33 -40 -69 -56
-29 -13 -63 -35 -77 -50 -13 -15 -40 -37 -58 -48 l-34 -21 -39 46 c-52 61 -95
75 -155 52 -49 -18 -85 -60 -104 -117 -18 -58 -41 -70 -98 -51 -44 15 -47 15
-87 -6 -51 -27 -75 -66 -75 -123 0 -39 -5 -49 -51 -93 -87 -86 -97 -125 -50
-195 l29 -44 -29 -50 -28 -51 -65 -5 c-43 -3 -71 -11 -85 -24 -20 -19 -45 -82
-56 -146 -5 -27 -15 -40 -42 -55 -55 -30 -78 -68 -78 -127 0 -45 4 -53 37 -84
21 -19 38 -43 38 -53 0 -11 -16 -38 -35 -61 -63 -75 -65 -161 -6 -221 26 -26
85 -49 125 -49 17 0 18 -5 10 -57 -4 -32 -9 -92 -9 -133 -1 -56 -7 -84 -22
-110 -12 -19 -24 -53 -27 -75 -4 -22 -12 -55 -17 -73 l-11 -33 -74 7 c-60 5
-78 4 -99 -10 -61 -40 -83 -131 -49 -211 13 -33 13 -39 0 -60 -8 -12 -27 -26
-43 -30 -91 -22 -118 -142 -49 -215 22 -22 24 -30 16 -70 -27 -137 2 -200 103
-224 21 -5 27 -12 27 -32 0 -66 68 -119 138 -108 27 4 49 1 70 -10 50 -26 79
-20 122 24 22 22 44 40 50 40 5 0 19 9 30 20 24 24 26 77 4 108 -11 16 -14 34
-9 62 8 47 -6 75 -40 84 -17 4 -25 13 -25 29 0 12 -7 32 -15 45 -14 18 -22 21
-59 16 -38 -6 -44 -3 -59 20 -22 33 -54 34 -69 1 -16 -36 10 -69 65 -83 44
-12 44 -12 57 -72 11 -52 11 -63 -4 -85 -25 -37 -56 -40 -114 -11 -44 22 -52
31 -58 63 -4 21 -13 51 -21 66 -12 25 -13 46 -2 138 10 95 15 112 35 128 13
10 43 56 66 102 l43 84 51 1 c41 2 60 9 102 39 28 20 54 45 57 56 4 11 18 27
31 36 23 15 26 15 49 -7 18 -17 46 -26 107 -35 46 -7 89 -9 95 -6 7 4 24 22
37 40 l25 34 7 -29 c9 -36 143 -171 184 -185 16 -6 30 -14 30 -18 0 -4 -13
-20 -30 -36 -43 -41 -47 -79 -15 -156 47 -114 112 -148 185 -94 60 44 71 5 11
-43 -68 -55 -60 -111 28 -195 50 -48 65 -57 96 -57 20 0 49 7 65 15 l30 16 0
-43 c0 -26 8 -55 20 -73 11 -16 25 -47 31 -68 5 -21 24 -53 40 -70 l31 -32
-38 -8 c-21 -4 -43 -12 -49 -17 -20 -17 -48 -149 -41 -193 8 -48 -4 -64 -52
-73 -60 -11 -130 -61 -143 -103 -15 -48 -34 -61 -90 -61 -56 0 -109 -10 -109
-20 0 -4 39 -10 88 -14 90 -6 112 -18 112 -57 0 -16 13 -29 87 -85 16 -11 46
-24 67 -27 47 -8 57 -20 43 -57 -8 -22 -7 -45 7 -101 24 -98 29 -106 84 -123
26 -8 40 -15 31 -15 -23 -1 -55 -40 -69 -86 -7 -22 -21 -53 -31 -70 -12 -18
-19 -49 -19 -78 l0 -47 -42 21 c-57 29 -97 16 -167 -54 -45 -47 -53 -60 -53
-92 0 -43 26 -84 65 -103 23 -11 25 -16 17 -33 -13 -23 -33 -25 -54 -4 -38 38
-101 39 -137 1 -22 -23 -69 -131 -69 -159 0 -24 23 -68 49 -91 25 -23 15 -40
-34 -56 -20 -7 -42 -25 -54 -44 -11 -17 -38 -46 -60 -64 -28 -22 -42 -43 -47
-67 l-6 -35 -37 41 -36 40 -79 -10 c-52 -6 -89 -17 -107 -30 -42 -31 -64 -27
-89 16 -30 53 -114 105 -158 97 -43 -8 -58 6 -99 93 -18 39 -44 79 -57 90 -23
16 -26 29 -37 129 -9 95 -9 115 4 135 8 13 18 41 21 62 6 31 15 43 54 68 54
34 92 37 117 9 16 -17 17 -26 6 -76 -13 -69 -23 -81 -71 -94 -53 -14 -66 -32
-50 -69 19 -46 62 -51 75 -10 7 20 7 21 75 23 43 1 45 3 50 34 4 23 14 38 39
53 32 19 33 22 26 64 -4 33 -2 51 9 67 9 12 16 37 16 54 0 35 -33 84 -56 84
-9 0 -32 18 -51 40 -40 44 -67 50 -125 26 -20 -9 -50 -12 -74 -9 -27 3 -51 0
-72 -11 -38 -20 -45 -30 -52 -81 -5 -37 -8 -40 -50 -52 -65 -18 -90 -51 -90
-116 1 -29 5 -72 9 -95 8 -40 6 -47 -19 -75 -35 -41 -44 -80 -29 -126 16 -49
45 -79 90 -93 44 -13 50 -28 32 -82 -50 -149 52 -272 186 -225 20 7 36 8 42 2
5 -5 15 -42 23 -81 8 -40 22 -84 32 -99 14 -21 19 -47 20 -98 0 -38 4 -98 8
-131 10 -69 12 -65 -66 -79 -82 -13 -131 -94 -107 -175 7 -22 27 -58 46 -79
18 -22 33 -47 33 -56 0 -10 -18 -37 -40 -61 -28 -31 -40 -52 -40 -74 0 -61 45
-129 96 -144 18 -5 25 -21 38 -76 26 -115 66 -154 153 -148 l46 3 29 -52 28
-51 -25 -30 c-54 -64 -39 -132 46 -205 47 -40 49 -44 49 -94 0 -47 4 -58 36
-93 45 -49 85 -62 138 -43 49 17 74 9 82 -25 11 -47 53 -110 88 -131 64 -40
137 -23 189 43 15 20 34 36 41 36 8 0 36 -20 64 -45 28 -25 70 -54 95 -65 29
-13 53 -33 71 -62 15 -24 47 -59 72 -78 60 -48 63 -63 20 -110 -41 -45 -51
-76 -42 -125 13 -66 97 -134 167 -135 40 0 50 -20 43 -82 -6 -53 -5 -57 30
-96 46 -51 95 -69 137 -52 32 14 28 15 119 -55 74 -57 133 -55 183 5 14 17 25
20 45 15 93 -23 119 -15 149 44 10 20 38 55 62 78 40 39 43 45 37 80 -4 21 -9
56 -12 78 -12 95 -34 125 -92 125 -22 0 -47 9 -68 25 -39 30 -47 30 -80 8 -22
-14 -31 -15 -57 -5 -26 10 -34 9 -49 -5 -10 -9 -18 -24 -18 -33 0 -24 -20 -40
-52 -40 -40 0 -53 -31 -27 -64 27 -35 56 -33 96 6 l33 32 52 -13 c64 -16 88
-35 88 -71 0 -29 -27 -59 -78 -84 -26 -14 -40 -15 -65 -7 -18 6 -50 13 -73 15
-29 3 -58 17 -100 48 -32 25 -71 53 -85 62 -17 11 -28 29 -32 51 -3 19 -26 63
-51 99 -52 72 -55 86 -26 126 18 25 20 38 14 97 -4 37 -13 77 -20 88 -26 36
-17 64 24 80 26 11 52 35 86 81 53 72 52 62 19 151 -3 8 5 9 30 3 25 -5 50 -2
88 11 29 11 67 19 85 19 20 0 45 11 69 30 41 33 55 31 55 -5 0 -32 54 -92 88
-99 15 -2 52 -8 84 -11 53 -6 58 -4 90 24 30 26 33 35 33 83 0 47 2 53 23 56
20 3 22 -1 22 -37 0 -33 7 -47 35 -76 40 -39 58 -42 139 -21 94 25 113 42 122
113 2 20 6 39 9 41 2 3 20 -5 40 -17 23 -13 54 -21 83 -21 26 0 63 -4 83 -9
25 -6 46 -4 69 5 29 13 32 12 25 -4 -23 -59 -19 -69 46 -136 45 -47 73 -68 97
-72 41 -8 47 -22 29 -66 -23 -54 -9 -160 25 -195 l27 -28 -24 -59 c-13 -32
-29 -64 -34 -69 -6 -6 -11 -22 -10 -36 0 -24 1 -25 12 -7 7 10 31 45 55 78
l43 59 52 -6 c44 -6 59 -3 97 19 25 14 59 39 75 56 35 37 51 38 85 5 23 -22
81 -43 168 -62 17 -4 31 4 57 32 l35 36 0 -34 c0 -23 8 -41 26 -58 14 -13 40
-47 57 -75 19 -33 43 -58 65 -69 l35 -16 -30 -19 c-38 -23 -63 -57 -63 -86 0
-49 33 -150 57 -176 37 -38 73 -44 123 -18 32 16 45 19 54 10 8 -9 5 -16 -13
-31 -13 -10 -29 -19 -36 -19 -21 0 -47 -37 -52 -77 -4 -34 0 -45 42 -101 69
-91 95 -104 173 -87 l34 8 -7 -44 c-5 -33 -1 -55 14 -89 11 -25 21 -59 21 -76
0 -28 28 -77 55 -96 5 -4 -4 -8 -22 -8 -62 0 -78 -14 -111 -94 -23 -54 -30
-83 -26 -105 8 -40 -10 -61 -51 -61 -50 0 -144 -47 -166 -84 -10 -17 -20 -35
-22 -41 -2 -6 -43 -9 -105 -7 -59 2 -109 -1 -121 -8 -16 -8 -39 -2 -118 31
-58 24 -107 52 -120 67 -12 15 -36 41 -53 57 -26 26 -30 37 -30 83 0 96 69
123 144 56 l40 -34 -10 -51 c-10 -44 -8 -53 8 -75 40 -51 99 -13 64 41 -15 22
-14 26 9 53 32 38 32 65 0 90 -18 14 -25 30 -25 53 0 44 -7 54 -52 72 -21 9
-43 28 -52 45 -24 47 -70 56 -121 22 -16 -11 -42 -20 -57 -20 -41 0 -77 -38
-87 -92 -4 -25 -17 -58 -29 -73 -44 -55 -34 -120 23 -162 25 -18 26 -20 13
-66 -11 -44 -11 -52 7 -85 21 -39 75 -75 140 -93 44 -12 55 -23 55 -55 0 -21
39 -63 77 -83 42 -21 99 -14 136 19 19 16 40 30 46 30 6 0 35 -22 65 -49 65
-59 110 -76 162 -62 51 14 72 37 90 97 10 34 22 55 34 59 10 3 52 -5 93 -20
40 -14 92 -25 114 -25 30 0 50 -7 72 -25 16 -14 54 -33 83 -41 29 -9 63 -22
75 -30 l21 -13 -20 -49 c-26 -62 -19 -109 23 -157 40 -45 93 -61 162 -49 75
14 84 10 92 -39 16 -96 122 -146 203 -97 39 24 56 25 113 4 93 -33 158 -14
186 54 8 20 17 39 19 42 3 2 33 5 67 7 l63 2 19 -42 c38 -80 96 -97 206 -59
l55 20 40 -24 c22 -13 55 -24 75 -24 45 0 101 37 111 73 26 91 15 82 103 79
95 -3 136 9 170 49 30 36 33 93 10 159 -18 52 -12 59 78 86 33 10 75 30 94 46
26 21 47 28 78 28 23 0 75 11 115 25 40 14 79 25 86 25 6 0 17 -20 23 -44 22
-89 98 -139 177 -117 20 6 60 32 89 60 30 28 59 51 66 51 6 0 27 -14 47 -31
32 -28 40 -31 89 -27 63 5 98 33 113 89 9 32 16 39 68 58 121 44 152 85 130
171 -10 40 -10 42 26 74 46 43 49 93 10 151 -14 21 -29 58 -34 83 -10 54 -47
92 -89 92 -16 0 -40 9 -54 20 -41 32 -73 26 -123 -25 -24 -25 -49 -45 -57 -45
-25 0 -50 -37 -43 -64 5 -20 -1 -31 -26 -55 l-31 -29 19 -28 c10 -15 23 -33
29 -40 7 -10 6 -20 -3 -34 -25 -40 -8 -80 34 -80 42 0 55 47 29 113 -11 27 80
107 122 107 45 0 63 -22 63 -80 0 -44 -5 -54 -55 -112 -50 -58 -65 -68 -156
-106 -80 -34 -103 -40 -120 -32 -12 7 -62 10 -121 8 -61 -2 -103 1 -105 7 -20
61 -114 125 -184 125 -47 0 -54 8 -55 65 -1 55 -42 161 -70 182 -10 7 -33 13
-51 13 l-34 0 26 23 c17 14 28 36 31 62 3 22 14 60 24 85 13 32 17 59 13 94
l-6 49 39 -7 c85 -17 104 -8 165 70 34 44 44 65 44 95 0 48 -31 91 -74 103
-33 10 -40 26 -17 45 11 10 24 8 57 -9 78 -40 124 -7 155 112 17 64 17 68 -1
108 -11 25 -31 48 -49 57 l-30 16 37 18 c21 11 51 41 72 72 19 28 44 63 55 77
11 14 21 37 22 53 1 15 4 27 6 27 3 0 20 -13 39 -30 18 -16 38 -30 43 -30 37
0 158 44 180 65 34 32 53 32 82 -3 13 -16 46 -41 74 -56 40 -22 60 -26 104
-24 l53 3 44 -65 c64 -94 70 -95 24 -3 -23 44 -41 84 -41 88 0 4 14 23 30 42
26 30 30 41 30 95 0 33 -5 78 -11 99 -14 46 -4 64 42 73 36 7 140 105 141 133
1 10 -2 35 -6 55 l-7 37 38 -12 c22 -8 51 -10 68 -6 17 4 53 7 82 8 33 1 65 9
87 22 l36 21 0 -30 c0 -53 38 -95 110 -119 79 -26 113 -28 144 -8 29 19 50 66
42 93 -8 24 18 54 39 46 11 -5 13 -17 8 -50 -5 -41 -3 -46 35 -85 41 -40 41
-41 99 -34 32 3 70 9 85 11 33 7 78 57 78 89 0 12 7 28 15 35 12 10 21 7 50
-19 24 -21 46 -31 68 -31 18 0 57 -8 86 -19 37 -13 63 -16 81 -11 27 8 28 8
14 -19 -22 -42 -17 -59 37 -131 36 -49 61 -72 85 -80 39 -13 42 -26 14 -80
-28 -54 -28 -148 0 -183 11 -14 20 -31 20 -39 0 -7 -22 -46 -50 -87 -27 -41
-50 -83 -50 -95 0 -31 -7 -38 -100 -107 -62 -46 -94 -64 -120 -65 -19 -1 -50
-8 -70 -14 -31 -10 -42 -10 -71 5 -51 26 -69 45 -69 74 0 38 11 50 68 71 69
27 83 25 117 -10 43 -45 95 -36 95 15 0 29 -19 45 -53 45 -24 0 -31 6 -44 39
-18 46 -33 55 -69 39 -21 -10 -31 -9 -59 7 -35 18 -35 18 -75 -9 -23 -15 -54
-26 -73 -26 -46 0 -74 -32 -81 -95 -3 -27 -8 -69 -12 -93 -6 -41 -4 -45 39
-85 25 -23 48 -52 52 -64 3 -13 20 -36 36 -53 34 -34 73 -39 118 -15 27 13 30
13 52 -11 60 -64 114 -67 189 -9 91 70 87 69 119 55 41 -17 91 1 131 46 32 37
36 59 21 112 -8 27 -6 35 12 52 11 11 32 20 47 20 14 0 46 10 70 22 34 18 51
35 69 71 21 43 23 52 12 88 -7 22 -28 58 -48 80 l-36 40 71 66 c40 36 72 71
72 78 0 16 40 51 68 60 13 4 47 26 76 50 90 73 94 74 135 27 44 -49 68 -62
116 -62 68 0 117 45 145 133 16 51 40 62 93 44 27 -9 53 -11 71 -6 59 16 102
80 92 137 -5 32 -1 39 45 81 28 25 57 58 65 73 22 42 17 97 -11 139 l-26 36
22 39 c40 70 45 73 103 67 48 -5 54 -3 82 24 22 23 34 50 48 108 16 70 21 78
50 90 46 20 68 48 73 99 7 63 -2 91 -42 128 -19 17 -35 35 -35 39 0 5 13 23
29 41 42 49 61 92 61 140 0 78 -52 135 -132 145 -24 3 -46 10 -49 15 -4 6 0
42 7 81 8 40 12 90 8 112 -4 32 0 51 19 87 13 25 28 71 31 102 4 30 15 65 25
77 16 20 21 21 51 11 132 -47 229 70 174 208 -22 55 -10 82 45 99 92 27 112
167 33 227 -12 9 -13 21 -2 82 21 115 -11 182 -95 198 -29 5 -33 10 -39 44 -3
22 -17 52 -30 67 -22 25 -31 28 -88 28 -34 1 -73 6 -85 13 -40 22 -89 15 -116
-17 -13 -16 -42 -40 -64 -54 -47 -30 -57 -60 -35 -109 7 -18 15 -55 15 -83 2
-44 5 -52 34 -70 23 -14 32 -28 33 -46 0 -39 23 -53 74 -46 39 6 44 4 54 -19
14 -30 37 -40 57 -24 35 29 5 100 -41 100 -40 0 -62 27 -70 87 -6 53 -5 58 20
80 35 30 59 29 113 -2 34 -21 43 -32 43 -53 0 -15 9 -44 20 -65 19 -35 19 -42
7 -148 -12 -98 -17 -113 -40 -132 -14 -12 -41 -54 -60 -93 -43 -85 -56 -98
-97 -89 -39 9 -121 -41 -157 -97 -29 -43 -55 -49 -88 -18 -14 13 -46 23 -98
30 -87 12 -107 6 -136 -42 l-19 -30 -12 36 c-7 21 -29 50 -51 68 -22 18 -49
47 -60 65 -14 22 -33 36 -60 44 -45 14 -49 30 -14 53 13 9 28 32 34 52 8 31 5
47 -22 116 -34 87 -59 112 -111 112 -17 0 -46 -11 -63 -23 -19 -14 -38 -21
-48 -17 -22 8 -15 28 16 43 39 20 59 52 59 95 0 35 -7 47 -61 103 -71 75 -102
86 -158 58 l-39 -19 -4 47 c-3 25 -14 59 -25 75 -12 16 -26 48 -32 71 -7 24
-24 52 -41 66 l-29 25 37 6 c55 9 60 16 83 97 17 59 19 83 11 116 -11 50 -3
61 52 70 54 8 138 71 148 109 12 46 25 52 116 60 45 4 82 11 82 15 0 5 -6 9
-12 9 -32 1 -135 11 -155 16 -16 3 -26 16 -34 45 -10 32 -23 48 -64 73 -28 18
-68 36 -90 40 -49 10 -55 19 -42 62 8 26 6 45 -6 85 -10 28 -17 59 -17 68 0
32 -30 61 -71 67 l-41 7 31 19 c21 13 35 33 43 61 6 23 21 55 32 71 11 17 22
52 24 82 l4 53 35 -14 c70 -29 100 -21 165 43 50 51 58 64 58 96 0 50 -23 91
-60 106 -35 14 -37 21 -12 43 17 16 21 15 52 -8 41 -30 88 -32 122 -5 15 11
36 49 51 89 30 80 26 115 -20 163 -27 29 -28 30 -9 44 11 8 26 14 34 14 24 0
160 147 167 180 8 38 16 38 38 0 10 -16 26 -34 35 -39 27 -13 179 13 205 36
28 25 53 19 72 -18 9 -16 33 -40 54 -54 22 -13 42 -29 46 -35 3 -5 31 -10 61
-10 l55 0 36 -76 c19 -43 47 -89 62 -103 25 -23 29 -37 40 -131 11 -99 10
-108 -9 -145 -11 -21 -20 -48 -20 -58 0 -33 -18 -52 -70 -77 -48 -22 -54 -23
-78 -9 -25 14 -27 20 -25 72 2 69 15 95 51 103 56 11 72 23 72 49 0 63 -46 86
-77 39 -14 -22 -22 -25 -53 -21 -46 6 -70 -7 -70 -38 0 -27 -20 -51 -51 -60
-18 -6 -20 -14 -17 -53 2 -30 -3 -60 -15 -84 -16 -34 -16 -41 -3 -72 8 -20 28
-42 47 -52 18 -9 47 -32 64 -50 36 -38 68 -43 114 -20 17 9 51 14 84 13 46 -2
59 2 81 22 16 15 29 41 33 64 4 29 12 41 32 49 82 32 89 37 101 74 10 28 10
53 0 111 l-12 74 31 35 c25 28 31 44 31 80 0 68 -31 121 -80 135 -59 18 -65
30 -46 86 30 87 15 157 -43 206 -35 29 -74 34 -144 18 -45 -11 -51 -3 -66 89
-6 34 -18 74 -28 89 -17 25 -19 43 -26 235 l-2 59 50 12 c67 15 92 30 110 65
32 61 15 138 -46 208 -16 18 -29 37 -29 43 0 6 18 27 40 46 36 33 40 41 40 86
0 68 -25 116 -71 136 -35 15 -38 20 -59 98 -28 108 -57 136 -137 132 -59 -3
-60 -2 -93 58 l-23 42 28 32 c24 29 27 39 23 88 -5 51 -8 57 -65 113 -57 54
-61 61 -57 96 6 50 -29 109 -80 135 -36 19 -40 19 -89 4 -61 -20 -77 -11 -96
53 -27 90 -112 144 -187 120 -19 -7 -49 -29 -66 -51 -41 -51 -64 -50 -126 6
-27 24 -70 54 -96 65 -30 13 -50 28 -56 45 -6 15 -40 54 -76 88 l-66 63 31 30
c16 16 37 46 46 67 34 83 -32 184 -134 206 -75 16 -80 22 -68 75 8 37 7 50
-10 82 -31 61 -64 79 -141 79 -65 0 -69 2 -119 44 -39 33 -63 45 -96 48 -40 5
-48 2 -86 -32 -37 -34 -44 -37 -67 -26 -63 28 -125 5 -151 -58 -9 -20 -33 -51
-55 -70 -37 -32 -39 -36 -33 -75 3 -23 8 -67 11 -98 5 -48 11 -62 36 -83 20
-17 42 -25 68 -25 22 0 43 -6 50 -16 28 -33 49 -36 85 -14 27 17 39 19 54 11
36 -20 52 -13 68 29 12 30 22 40 39 40 56 0 73 41 34 80 -27 27 -31 26 -80
-15 -23 -19 -45 -35 -49 -35 -15 0 -106 33 -118 43 -17 12 -17 59 0 79 27 34
87 60 120 53 18 -3 52 -9 77 -12 61 -7 220 -124 220 -161 0 -13 23 -58 50 -99
28 -41 50 -80 50 -87 0 -8 -9 -25 -20 -39 -29 -36 -28 -134 2 -186 26 -45 20
-67 -25 -86 -33 -14 -127 -127 -127 -153 0 -7 7 -29 15 -49 8 -19 15 -37 15
-38 0 -2 -15 1 -33 6 -26 7 -47 4 -92 -11 -32 -11 -71 -20 -86 -20 -15 0 -41
-11 -57 -25 -34 -28 -62 -33 -62 -9 0 30 -33 85 -59 98 -14 8 -60 17 -101 21
-75 7 -76 7 -109 -24 -30 -28 -32 -35 -29 -83 3 -51 2 -53 -22 -53 -20 0 -25
5 -26 25 -1 14 -2 33 -3 43 -2 31 -56 77 -90 77 -53 0 -149 -32 -173 -57 -13
-14 -24 -42 -28 -69 l-5 -44 -37 20 c-21 11 -56 20 -79 20 -22 0 -60 5 -84 11
-36 9 -50 8 -74 -4 l-31 -15 7 26 c14 54 6 74 -55 134 -39 40 -70 62 -93 67
-30 6 -34 10 -31 37 2 16 4 66 5 111 2 78 1 83 -27 112 l-29 30 23 53 c12 29
29 63 37 75 8 12 13 30 11 40 -2 12 -18 -4 -51 -54 -26 -39 -54 -73 -62 -76
-7 -3 -28 -2 -46 3 -26 8 -42 4 -93 -19 -34 -17 -71 -43 -84 -60 -28 -38 -54
-39 -79 -5 -13 18 -39 31 -88 44 -94 26 -109 25 -138 -10 -30 -35 -37 -37 -37
-10 0 28 -23 70 -50 95 -12 11 -31 37 -41 58 -12 22 -33 44 -54 54 l-34 16 39
28 c24 17 41 39 45 57 6 28 -11 107 -37 175 -19 49 -93 73 -134 42 -26 -20
-64 -19 -64 1 0 9 17 22 39 31 28 11 45 26 57 51 21 45 12 78 -45 154 -50 66
-92 87 -143 69 -48 -17 -51 -15 -44 30 5 29 1 52 -14 86 -11 25 -20 56 -20 69
0 32 -14 65 -39 92 l-22 22 24 0 c59 0 81 18 110 88 16 41 27 87 27 115 0 42
3 49 26 57 14 6 39 10 55 10 50 0 127 45 143 84 18 43 40 50 132 41 48 -4 84
-3 106 5 30 11 42 8 133 -30 55 -23 105 -49 110 -58 6 -9 27 -34 48 -57 32
-36 37 -49 37 -89 0 -56 -32 -96 -77 -96 -36 0 -117 75 -108 99 28 68 10 121
-41 121 -32 0 -41 -26 -22 -61 15 -25 15 -29 2 -40 -9 -7 -22 -25 -30 -41 -14
-28 -14 -30 15 -57 25 -24 30 -34 25 -58 -5 -25 -1 -34 21 -52 15 -11 33 -21
38 -21 6 0 30 -20 53 -45 46 -50 70 -55 118 -26 17 11 48 22 69 26 44 9 63 32
73 92 3 23 17 57 30 75 40 54 28 129 -26 161 -27 16 -27 18 -14 56 16 47 5 97
-29 129 -12 12 -53 34 -91 49 -60 25 -69 33 -81 66 -17 51 -29 63 -80 83 -52
20 -79 14 -128 -25 -44 -34 -69 -32 -100 11 -28 38 -95 78 -131 78 -35 0 -87
-22 -106 -45 -8 -9 -22 -38 -31 -64 -19 -56 -43 -62 -124 -32 -31 12 -75 21
-99 21 -31 0 -54 8 -82 28 -22 16 -64 37 -94 47 -92 30 -92 30 -75 72 8 19 15
58 15 85 0 43 -5 54 -39 91 l-40 42 -93 0 c-51 0 -99 4 -105 8 -7 5 -13 20
-13 35 -1 64 -58 112 -131 112 -32 0 -55 -7 -73 -21 -28 -22 -29 -22 -130 6
-32 9 -71 14 -85 10 -34 -8 -69 -42 -86 -82 -13 -30 -16 -31 -78 -35 l-66 -3
-22 49 c-16 37 -30 52 -58 63 -37 16 -52 14 -167 -19 -37 -10 -44 -9 -69 10
-33 26 -96 29 -139 7z m286 -206 c12 -7 44 -14 72 -18 45 -5 53 -11 80 -48 27
-39 28 -44 16 -73 -17 -40 -44 -50 -115 -43 -56 6 -57 7 -78 52 -24 51 -61 66
-90 36 -21 -21 -4 -63 30 -71 19 -5 23 -13 23 -48 0 -50 13 -66 54 -66 21 0
37 -9 56 -32 26 -30 28 -31 70 -20 28 7 50 7 61 1 10 -5 39 -9 64 -9 25 0 54
4 64 9 11 6 33 6 61 -1 42 -11 44 -10 69 20 18 22 36 32 61 34 34 3 35 5 40
51 4 38 10 50 30 60 48 24 29 87 -26 87 -19 0 -29 -10 -47 -47 -21 -45 -25
-48 -72 -55 -62 -10 -102 -2 -115 22 -17 31 -12 50 26 96 30 36 42 44 70 44
18 0 51 7 73 16 37 14 44 14 113 -5 40 -12 89 -26 109 -31 22 -6 40 -19 47
-34 6 -13 42 -44 80 -69 38 -25 73 -50 76 -56 4 -6 2 -28 -3 -48 -10 -33 -7
-44 20 -97 17 -32 44 -70 60 -83 36 -31 36 -39 1 -78 -27 -28 -62 -127 -62
-175 0 -10 14 -35 31 -55 l31 -35 -31 0 c-21 0 -43 -11 -68 -34 -21 -18 -57
-45 -81 -60 -23 -15 -47 -37 -52 -50 -15 -40 -31 -42 -59 -7 -36 44 -72 51
-155 30 -109 -28 -143 -78 -105 -153 23 -44 19 -66 -11 -66 -13 0 -24 11 -34
34 -22 53 -48 64 -151 64 -103 0 -127 -10 -149 -63 -10 -22 -22 -35 -34 -35
-30 0 -33 11 -12 40 24 34 25 71 4 115 -17 37 -21 39 -113 65 -77 22 -114 14
-154 -32 -27 -32 -28 -32 -40 -13 -33 54 -175 165 -211 165 l-29 0 26 20 c14
11 29 29 32 40 9 30 -34 171 -61 201 -31 33 -30 45 6 75 16 14 41 49 56 77 21
42 24 60 19 98 -6 45 -5 47 32 76 21 16 55 40 76 52 21 13 44 36 52 52 10 19
27 32 53 38 20 6 69 19 107 30 86 24 82 23 107 10z m-119 -1198 c-2 -9 5 -25
16 -35 37 -34 25 -54 -24 -40 -17 4 -20 12 -17 47 5 59 11 75 21 58 5 -7 7
-21 4 -30z m736 -15 c0 -42 -4 -55 -17 -59 -9 -3 -25 -8 -35 -12 -14 -6 -16
-4 -10 11 3 9 15 26 25 36 10 10 16 23 13 28 -5 9 11 50 20 50 2 0 4 -24 4
-54z m-504 -74 c-49 -41 -85 -60 -104 -55 -11 3 -21 9 -21 13 0 16 27 29 47
24 12 -4 32 1 45 10 23 16 50 23 33 8z m296 -8 c8 -10 22 -14 39 -11 14 3 32
2 39 -3 10 -6 6 -12 -18 -24 -31 -17 -33 -16 -62 9 -17 14 -35 25 -40 25 -5 0
-9 5 -9 10 0 16 36 12 51 -6z m-796 -53 c-3 -6 -11 -11 -17 -11 -6 0 -6 6 2
15 14 17 26 13 15 -4z m1269 10 c3 -5 -1 -11 -9 -15 -15 -6 -29 7 -18 18 9 9
21 8 27 -3z m-1409 -51 c3 -5 1 -10 -4 -10 -6 0 -11 5 -11 10 0 6 2 10 4 10 3
0 8 -4 11 -10z m1545 0 c0 -5 -5 -10 -11 -10 -5 0 -7 5 -4 10 3 6 8 10 11 10
2 0 4 -4 4 -10z m-1840 -29 c0 -4 12 -20 26 -34 24 -25 25 -27 9 -51 -10 -14
-21 -26 -26 -26 -5 0 -12 -1 -16 -2 -4 -2 -8 15 -9 36 0 22 -6 42 -12 44 -21
7 -14 42 8 42 11 0 20 -4 20 -9z m2160 4 c0 -3 -7 -16 -16 -29 -8 -13 -14 -37
-12 -53 2 -22 -1 -29 -19 -31 -14 -2 -26 4 -33 18 -9 17 -6 26 22 60 28 34 58
52 58 35z m-1204 -192 c-10 -10 -19 5 -10 18 6 11 8 11 12 0 2 -7 1 -15 -2
-18z m220 0 c-10 -10 -19 5 -10 18 6 11 8 11 12 0 2 -7 1 -15 -2 -18z m-1214
-45 c-5 -5 -36 -8 -68 -6 l-59 3 40 9 c22 4 45 14 50 20 18 23 40 24 43 3 2
-10 -1 -24 -6 -29z m2245 23 c13 -11 30 -18 38 -15 7 3 16 1 19 -5 4 -6 -16
-10 -54 -9 -64 1 -74 6 -64 32 8 21 31 20 61 -3z m-1197 -111 c0 -5 -5 -10
-11 -10 -5 0 -7 5 -4 10 3 6 8 10 11 10 2 0 4 -4 4 -10z m-960 -164 c0 -3 -4
-8 -10 -11 -5 -3 -10 -1 -10 4 0 6 5 11 10 11 6 0 10 -2 10 -4z m2045 -6 c-3
-5 -11 -10 -16 -10 -6 0 -7 5 -4 10 3 6 11 10 16 10 6 0 7 -4 4 -10z m-1025
-114 c0 -3 -4 -8 -10 -11 -5 -3 -10 -1 -10 4 0 6 5 11 10 11 6 0 10 -2 10 -4z
m-970 -30 c0 -3 -4 -8 -10 -11 -5 -3 -10 -1 -10 4 0 6 5 11 10 11 6 0 10 -2
10 -4z m942 -109 c-2 -38 11 -63 28 -52 7 4 10 19 6 35 -6 32 14 56 39 46 18
-7 20 -32 2 -43 -7 -4 -20 -20 -30 -35 -22 -36 -43 -35 -61 1 -9 16 -23 32
-33 36 -16 6 -15 9 12 30 34 28 40 26 37 -18z m338 -92 c-7 -9 -15 -13 -19
-10 -3 3 1 10 9 15 21 14 24 12 10 -5z m-620 1 c0 -2 -7 -6 -15 -10 -8 -3 -15
-1 -15 4 0 6 7 10 15 10 8 0 15 -2 15 -4z m-546 -69 c6 -25 -11 -39 -38 -33
-11 3 -35 -4 -53 -15 -48 -30 -41 -10 14 37 50 44 67 46 77 11z m1816 -49 c0
-12 -35 -9 -48 4 -7 7 -27 12 -45 13 -26 0 -31 4 -29 20 2 10 11 24 20 31 13
10 24 5 59 -24 24 -20 43 -40 43 -44z m-1420 62 c0 -5 -4 -10 -10 -10 -5 0
-10 5 -10 10 0 6 5 10 10 10 6 0 10 -4 10 -10z m1961 -82 c6 -15 24 -32 42
-39 18 -7 52 -21 76 -31 26 -12 59 -18 85 -16 l41 3 5 -50 c8 -69 33 -105 76
-105 18 0 48 9 67 20 40 24 65 18 73 -17 9 -34 131 -133 163 -133 15 0 38 6
53 14 l26 14 -10 -30 c-8 -22 -7 -39 6 -71 9 -24 16 -61 16 -82 0 -32 7 -48
36 -79 39 -42 34 -56 -18 -56 -16 0 -41 -12 -59 -28 -26 -23 -34 -40 -40 -83
-14 -98 -11 -116 22 -154 28 -32 36 -35 86 -35 46 0 54 -3 51 -17 -2 -13 -17
-20 -53 -25 -72 -10 -99 -44 -92 -112 15 -130 55 -186 131 -186 25 0 46 -2 46
-5 0 -3 -12 -23 -26 -45 -20 -31 -25 -48 -21 -77 2 -21 0 -58 -6 -84 -8 -37
-6 -51 8 -79 14 -28 15 -32 2 -27 -9 3 -31 9 -51 12 -33 7 -39 3 -96 -51 -41
-39 -63 -69 -70 -95 -12 -45 -34 -54 -81 -36 -52 22 -147 9 -188 -25 -17 -15
-37 -25 -44 -22 -7 2 -18 24 -25 48 -7 28 -24 54 -48 76 -35 30 -41 32 -88 26
-97 -13 -100 -13 -111 14 -33 82 -62 124 -98 143 -47 24 -53 50 -28 108 23 50
63 76 100 64 20 -6 71 -90 71 -116 0 -7 -11 -27 -25 -45 -32 -42 -32 -67 1
-93 20 -16 30 -18 45 -10 16 8 18 17 13 44 -6 32 -4 35 35 54 44 23 51 43 26
79 -14 19 -14 24 0 52 18 34 12 51 -29 89 -16 15 -26 35 -26 52 0 15 -10 40
-22 54 -21 24 -30 26 -116 29 -103 4 -128 -6 -151 -62 -7 -16 -24 -35 -38 -43
-37 -20 -73 -67 -73 -96 0 -14 9 -41 21 -60 l21 -34 -27 -34 c-14 -20 -29 -51
-32 -70 -3 -19 -8 -35 -10 -35 -3 0 -28 20 -56 44 -32 27 -74 51 -109 61 l-56
18 34 32 c19 18 34 38 34 45 0 27 33 50 69 50 20 0 46 7 58 15 24 17 48 78 39
100 -3 8 6 35 20 60 31 60 30 84 -5 129 -17 21 -35 53 -41 72 -16 47 -59 69
-105 54 -20 -7 -53 -8 -81 -4 -43 6 -48 4 -74 -25 -17 -18 -35 -29 -44 -25 -8
3 -24 1 -35 -6 -16 -8 -21 -20 -21 -55 0 -38 -4 -46 -27 -57 -37 -18 -41 -52
-9 -73 34 -23 62 -11 76 30 16 48 44 65 109 65 96 0 116 -44 56 -124 -41 -53
-64 -58 -119 -25 -31 18 -49 20 -122 17 l-86 -3 -13 48 c-17 68 -51 99 -113
105 -28 2 -59 -1 -72 -8 -34 -18 -53 5 -40 50 8 29 5 43 -21 97 -17 34 -44 72
-60 84 -36 25 -36 35 -3 70 25 26 63 137 64 184 0 11 -13 34 -29 51 l-30 32
38 6 c21 3 46 15 57 27 10 12 38 30 62 41 23 10 49 30 57 44 52 84 47 80 59
60 28 -47 60 -76 90 -82 46 -8 171 30 191 59 20 29 19 82 -2 118 -16 27 -16
30 -1 45 20 20 48 12 48 -14 0 -36 61 -82 109 -82 10 0 48 22 84 50 77 58 92
96 63 158 -23 47 -10 59 48 42 41 -11 49 -10 84 8 21 11 57 23 80 27 28 4 49
16 64 34 l23 28 3 -26 c2 -14 8 -38 13 -53z m-2966 42 c11 -10 37 -21 58 -24
21 -4 57 -17 79 -28 35 -18 44 -19 80 -9 47 15 55 10 40 -24 -15 -32 -15 -80
-2 -105 6 -11 41 -42 78 -70 57 -44 72 -51 100 -46 42 6 61 22 79 64 15 35 38
51 54 35 7 -7 3 -24 -11 -52 -19 -35 -20 -46 -11 -73 6 -17 19 -40 28 -50 22
-25 149 -61 187 -54 33 7 66 32 66 51 0 7 9 20 19 29 19 17 20 17 36 -16 25
-48 45 -68 85 -84 19 -8 47 -26 61 -40 14 -13 39 -26 56 -27 l31 -2 -35 -38
c-23 -26 -32 -44 -28 -55 4 -10 13 -44 22 -77 9 -37 26 -72 43 -90 31 -33 28
-65 -9 -84 -11 -6 -34 -37 -51 -68 -28 -52 -31 -62 -22 -100 8 -36 6 -45 -10
-60 -14 -13 -21 -14 -30 -5 -7 7 -32 12 -55 12 -75 0 -133 -44 -133 -102 0
-49 -22 -59 -110 -52 -69 6 -83 4 -115 -15 -53 -31 -78 -27 -114 18 -37 47
-39 80 -7 110 20 19 33 22 87 19 l63 -3 25 -50 c28 -54 52 -66 85 -42 25 18
15 63 -17 73 -29 9 -38 24 -30 51 3 14 -2 34 -12 49 -13 21 -21 24 -46 19 -25
-6 -31 -3 -47 25 -17 31 -18 31 -73 25 -34 -3 -66 -1 -81 5 -41 19 -94 -9
-107 -57 -6 -22 -22 -50 -36 -63 -30 -28 -33 -74 -8 -110 9 -13 20 -51 24 -85
10 -78 46 -115 114 -115 43 0 46 -2 52 -30 3 -17 21 -43 39 -60 38 -33 39 -31
-36 -55 -35 -11 -76 -36 -112 -67 l-58 -49 0 32 c0 19 -11 49 -26 71 -24 34
-25 40 -12 60 39 60 24 120 -41 165 -22 15 -45 41 -52 56 -23 54 -48 64 -149
61 -105 -3 -126 -14 -136 -73 -4 -20 -20 -51 -37 -68 l-31 -33 17 -36 c16 -32
16 -37 2 -57 -24 -34 -18 -55 25 -82 35 -22 39 -28 34 -54 -5 -22 -1 -32 17
-45 20 -13 26 -14 44 -2 30 20 30 43 1 85 -32 46 -32 56 -3 112 47 88 110 92
146 10 23 -55 17 -96 -16 -108 -35 -12 -83 -67 -98 -114 -22 -64 -37 -76 -79
-61 -48 18 -94 15 -127 -9 -34 -24 -59 -67 -59 -102 0 -39 -38 -43 -75 -8 -24
23 -41 30 -90 33 -38 3 -72 0 -93 -9 -45 -19 -69 -9 -76 30 -4 22 -27 53 -70
96 -60 59 -66 63 -97 56 -19 -4 -40 -12 -47 -18 -11 -9 -11 -3 1 25 8 20 13
39 10 42 -4 3 -7 43 -8 89 -1 69 -5 88 -24 114 -30 40 -21 53 35 53 33 0 51 6
67 23 29 29 61 146 53 191 -9 48 -56 86 -105 86 -44 0 -55 8 -40 27 7 8 32 13
64 13 47 0 56 3 80 32 25 29 26 35 19 97 -12 122 -46 171 -119 171 -19 0 -35
3 -35 6 0 4 16 24 35 45 27 31 35 48 35 78 0 21 6 57 14 79 10 27 12 51 6 76
-4 20 -7 36 -5 36 1 0 16 -7 31 -15 16 -8 40 -15 54 -15 33 0 145 91 154 124
10 41 41 51 82 27 47 -28 95 -27 112 0 8 12 15 41 17 65 4 61 18 74 68 69 32
-4 58 2 107 23 68 30 90 55 90 105 0 30 7 29 45 -3z m750 -75 c1 -50 -10 -79
-26 -69 -5 3 -9 18 -9 34 0 19 -7 33 -20 40 -33 18 -5 51 40 46 10 -1 14 -15
15 -51z m1469 46 c17 -7 17 -9 -8 -36 -16 -17 -25 -37 -23 -47 5 -18 -18 -45
-26 -31 -3 5 -5 31 -5 58 1 62 15 74 62 56z m-5171 -49 c28 -23 46 -29 91 -30
30 -1 72 5 93 12 46 16 63 11 63 -17 0 -26 20 -56 82 -121 41 -43 50 -48 80
-44 18 3 41 9 52 13 18 8 18 7 1 -19 -16 -24 -17 -34 -7 -77 7 -28 12 -71 12
-95 0 -30 7 -54 21 -73 26 -36 20 -47 -29 -54 -50 -8 -80 -42 -97 -108 -23
-85 -20 -122 14 -158 24 -26 36 -31 75 -31 46 0 56 -9 37 -38 -5 -9 -19 -11
-43 -7 -60 11 -118 -30 -118 -85 0 -11 -7 -23 -15 -27 -20 -7 -45 -55 -45 -84
0 -13 12 -41 27 -62 26 -38 27 -40 8 -53 -26 -19 -32 -18 -46 9 -25 48 -51 67
-92 67 -36 0 -47 -7 -105 -64 -69 -70 -70 -75 -47 -168 7 -27 6 -28 -36 -28
-26 0 -57 -8 -76 -19 -17 -11 -49 -25 -71 -30 -48 -13 -92 -46 -92 -69 0 -9
-11 8 -23 38 -22 54 -22 55 -87 72 -37 10 -91 17 -125 15 l-59 -2 -7 40 c-11
62 -67 142 -109 156 -51 16 -60 34 -60 113 0 43 -6 82 -15 100 -20 38 -19 50
11 157 21 73 35 101 63 130 20 21 44 46 53 57 11 14 35 23 74 28 52 6 59 5 76
-16 26 -32 23 -48 -18 -109 l-36 -54 -48 6 c-59 7 -83 -7 -78 -47 5 -43 30
-55 68 -33 30 18 31 18 64 -2 44 -28 53 -27 71 9 12 24 22 30 48 30 38 0 57
15 57 46 0 12 20 46 45 75 31 36 45 62 45 82 0 19 10 38 28 55 38 35 42 51 25
86 -13 26 -13 32 3 61 20 38 12 55 -37 80 -22 12 -27 21 -26 50 1 46 -15 62
-50 49 -38 -13 -41 -47 -7 -95 l27 -39 -19 -42 c-29 -64 -52 -88 -85 -88 -36
0 -64 27 -79 78 -11 33 -9 43 9 77 12 22 21 50 21 63 0 16 26 50 83 108 73 73
88 84 118 84 20 0 65 15 105 35 38 19 76 35 85 35 9 0 32 -13 52 -28z m8963
-7 c38 -20 81 -35 101 -35 30 0 45 -11 114 -81 54 -55 79 -88 79 -104 0 -14 9
-42 20 -64 20 -37 20 -40 4 -82 -33 -87 -98 -105 -141 -40 -29 42 -39 80 -27
96 44 59 47 67 38 92 -21 60 -80 55 -77 -6 1 -27 -5 -36 -38 -57 -41 -26 -48
-47 -24 -78 12 -16 12 -22 0 -47 -20 -39 -19 -45 15 -81 17 -17 33 -43 36 -57
9 -41 37 -91 61 -106 12 -8 24 -29 28 -47 10 -46 33 -68 71 -68 23 0 34 -5 39
-19 13 -41 32 -46 81 -22 43 22 46 22 64 6 42 -38 79 10 46 61 -15 22 -21 24
-70 18 l-53 -6 -32 45 c-38 55 -39 80 -5 114 23 23 30 25 82 19 38 -4 60 -12
67 -23 6 -10 27 -35 48 -57 21 -22 40 -51 43 -65 3 -14 15 -59 26 -99 20 -67
20 -75 5 -110 -8 -20 -18 -73 -21 -117 -7 -86 -11 -95 -59 -111 -37 -12 -107
-106 -107 -142 0 -13 -5 -32 -11 -43 -9 -18 -17 -19 -63 -14 -39 5 -70 2 -124
-14 -71 -22 -72 -22 -85 -68 l-14 -47 -27 31 c-17 20 -45 35 -74 43 -25 6 -58
20 -73 31 -17 12 -44 19 -73 19 l-45 0 15 36 c23 54 10 90 -59 161 -53 55 -65
63 -97 63 -40 0 -85 -28 -95 -59 -7 -23 -35 -35 -49 -21 -7 7 -3 19 10 37 11
16 23 36 27 47 10 25 -10 93 -32 108 -10 7 -21 26 -25 42 -4 16 -21 42 -37 59
-28 27 -34 29 -79 23 -45 -6 -50 -5 -50 13 0 21 18 31 60 31 42 0 59 9 75 41
20 37 19 59 -5 140 -23 77 -62 119 -111 119 -35 0 -35 3 -8 47 14 22 19 42 15
58 -3 13 0 50 7 82 12 48 12 64 1 97 -13 35 -12 37 4 31 9 -4 33 -9 53 -12 34
-5 40 -1 93 53 32 33 60 71 63 86 8 39 27 52 65 43 18 -4 61 -8 95 -10 57 -3
66 0 99 26 20 16 45 29 55 29 9 0 48 -16 85 -35z m-7724 -222 c7 -16 23 -29
36 -31 45 -7 21 -45 -30 -48 -22 -1 -28 3 -28 20 0 11 -7 30 -15 40 -11 14
-12 23 -4 33 17 19 26 16 41 -14z m6378 20 c0 -4 -7 -26 -16 -49 -17 -44 -50
-63 -80 -46 -14 8 -14 11 1 25 9 10 22 17 28 17 7 0 20 14 29 30 15 27 38 41
38 23z m-6165 -58 c-14 -21 -25 -42 -25 -46 0 -13 -34 -11 -47 2 -15 15 7 39
35 39 11 0 27 12 37 26 9 14 19 24 21 21 3 -3 -6 -22 -21 -42z m5919 20 c9
-14 25 -25 36 -25 22 0 36 -18 24 -30 -5 -4 -19 -11 -31 -14 -18 -6 -24 -2
-29 18 -3 14 -12 30 -20 37 -16 13 -19 39 -5 39 5 0 16 -11 25 -25z m-2935
-77 l24 -28 -59 1 c-44 0 -54 2 -37 9 12 5 27 19 33 30 6 12 12 20 13 18 1 -1
13 -15 26 -30z m-3399 -142 c0 -3 -4 -8 -10 -11 -5 -3 -10 -1 -10 4 0 6 5 11
10 11 6 0 10 -2 10 -4z m6760 0 c0 -3 -4 -8 -10 -11 -5 -3 -10 -1 -10 4 0 6 5
11 10 11 6 0 10 -2 10 -4z m-6185 -46 c-3 -5 -11 -10 -16 -10 -6 0 -7 5 -4 10
3 6 11 10 16 10 6 0 7 -4 4 -10z m5610 0 c-3 -5 -11 -10 -16 -10 -6 0 -7 5 -4
10 3 6 11 10 16 10 6 0 7 -4 4 -10z m-6295 -55 c-14 -17 -30 -20 -30 -6 0 5 8
12 18 14 9 3 19 5 21 6 2 0 -2 -6 -9 -14z m6990 1 c0 -9 -30 -14 -35 -6 -4 6
3 10 14 10 12 0 21 -2 21 -4z m242 -164 c-18 -15 -32 -35 -32 -44 0 -10 -2
-18 -4 -18 -2 0 -11 -3 -20 -6 -13 -5 -16 1 -16 25 0 18 5 31 13 31 7 0 28 11
47 24 46 31 54 22 12 -12z m-7471 5 c28 -18 34 -27 30 -45 -3 -13 -9 -23 -13
-23 -5 1 -12 1 -18 1 -5 0 -10 9 -10 20 0 11 -11 27 -25 36 -27 17 -33 34 -12
34 6 0 28 -11 48 -23z m1299 -72 c0 -2 -14 -12 -30 -20 -17 -9 -35 -27 -40
-40 -11 -28 -32 -32 -50 -10 -16 19 -6 45 17 45 10 1 29 7 43 15 24 14 60 20
60 10z m4932 -17 c35 -13 36 -15 25 -39 -17 -33 -54 -38 -59 -7 -2 13 -15 28
-30 36 -16 7 -28 18 -28 24 0 12 38 6 92 -14z m-6208 -104 c-5 -20 -104 -72
-104 -54 0 4 13 13 30 20 16 7 32 22 36 34 13 42 49 42 38 0z m7431 5 c4 -11
21 -27 38 -36 24 -13 28 -18 15 -21 -9 -2 -26 2 -37 7 -11 6 -29 11 -40 11
-16 0 -21 6 -21 28 0 16 3 31 6 35 10 10 33 -4 39 -24z m-3674 -33 c15 -13 58
-34 95 -46 l66 -22 -29 -18 c-16 -9 -37 -36 -47 -59 -17 -37 -23 -41 -55 -41
-20 0 -49 -8 -66 -18 -29 -18 -31 -18 -60 0 -16 10 -47 18 -67 18 -33 0 -38 3
-48 35 -7 20 -25 45 -41 57 l-29 22 76 27 c42 15 86 36 97 48 28 28 72 27 108
-3z m2499 -57 c0 -9 -22 -27 -51 -43 -67 -34 -81 -33 -40 4 18 17 31 36 28 43
-2 6 3 17 12 23 19 14 51 -3 51 -27z m-5056 16 c-4 -9 6 -27 25 -44 17 -16 31
-32 31 -35 0 -13 -39 -5 -63 14 -14 11 -32 20 -41 20 -21 0 -20 29 2 46 24 19
53 18 46 -1z m-1019 -155 c3 -6 -4 -10 -17 -10 -18 0 -20 2 -8 10 19 12 18 12
25 0z m7060 0 c-3 -5 -14 -10 -23 -10 -15 0 -15 2 -2 10 20 13 33 13 25 0z
m-7452 -97 c5 -41 2 -50 -16 -65 -12 -10 -25 -18 -29 -18 -14 0 -8 27 8 41 10
8 14 22 11 38 -3 13 -3 31 0 38 10 26 21 12 26 -34z m1177 43 c0 -3 -4 -8 -10
-11 -5 -3 -10 -1 -10 4 0 6 5 11 10 11 6 0 10 -2 10 -4z m6677 -78 c13 -14 13
-21 3 -32 -10 -14 -15 -13 -36 0 -19 13 -22 20 -14 34 6 10 10 29 10 43 0 38
15 42 18 5 2 -18 11 -41 19 -50z m-4237 47 c21 -15 48 -25 69 -25 29 -1 41 -7
64 -37 34 -45 34 -77 2 -109 -22 -22 -30 -24 -82 -18 -32 4 -66 13 -75 21 -30
27 -53 12 -55 -35 -4 -60 10 -82 50 -82 24 0 39 -8 59 -32 26 -32 26 -33 73
-20 32 8 52 9 65 2 38 -20 77 -12 104 23 14 17 26 27 26 20 0 -39 77 -66 120
-43 13 7 33 6 65 -2 43 -12 48 -11 61 7 26 39 35 45 64 45 18 0 32 7 38 18 10
21 9 83 -1 100 -11 16 -42 15 -56 -2 -18 -22 -119 -30 -147 -11 -33 21 -31 65
3 107 37 44 43 48 79 48 16 0 45 11 64 25 42 31 54 31 109 -1 25 -14 66 -30
92 -35 36 -8 54 -19 74 -45 14 -19 52 -50 83 -70 76 -48 81 -56 69 -102 -9
-33 -6 -44 21 -98 17 -33 42 -68 56 -78 33 -21 33 -46 1 -80 -14 -15 -28 -39
-31 -54 -3 -15 -12 -48 -21 -74 -20 -64 6 -110 61 -110 32 0 125 92 142 140
16 49 35 59 77 44 18 -7 59 -12 91 -12 49 0 63 4 96 31 44 35 48 35 154 -18
39 -20 77 -32 88 -29 14 3 34 -8 67 -38 25 -24 66 -55 90 -70 42 -27 43 -29
38 -68 -4 -29 0 -51 13 -75 17 -32 17 -37 2 -76 -24 -65 -40 -78 -86 -75 -38
3 -43 7 -68 52 -21 40 -24 55 -17 75 8 19 6 29 -9 44 -19 19 -20 18 -61 -7
-43 -28 -50 -49 -27 -81 12 -17 12 -23 0 -47 -20 -38 -18 -51 15 -82 18 -17
31 -42 35 -66 8 -48 48 -83 88 -78 28 5 28 4 8 -14 -11 -10 -20 -23 -20 -29 0
-23 30 -78 48 -88 11 -6 24 -25 27 -43 12 -52 26 -68 63 -68 26 0 36 -6 50
-30 9 -16 23 -32 31 -35 10 -4 53 15 89 41 2 1 0 13 -3 27 -4 15 -16 28 -30
31 -25 6 -85 84 -85 109 0 8 9 26 21 41 18 22 28 26 76 26 49 0 58 -4 84 -31
16 -17 29 -35 29 -39 0 -5 14 -11 31 -15 34 -8 49 -36 49 -93 0 -19 5 -62 12
-94 11 -51 10 -62 -5 -87 -11 -19 -17 -51 -17 -93 0 -93 -7 -107 -55 -128 -49
-21 -115 -109 -115 -153 0 -31 -27 -60 -47 -53 -39 15 -64 14 -138 -7 -68 -19
-81 -26 -89 -50 -23 -63 62 -110 199 -111 l70 -1 6 -37 c3 -21 24 -63 45 -95
31 -46 48 -60 76 -67 42 -11 48 -23 48 -114 0 -38 7 -78 16 -98 10 -22 14 -46
10 -66 -3 -18 -10 -64 -15 -103 -11 -91 -17 -102 -54 -115 -18 -6 -42 -25 -54
-44 -19 -30 -29 -35 -76 -41 -102 -13 -129 28 -76 114 24 38 41 54 61 58 22 4
28 11 28 32 0 21 -9 31 -43 49 -48 26 -69 22 -85 -14 -9 -17 -19 -24 -41 -24
-37 0 -57 -19 -65 -63 -4 -20 -17 -42 -35 -55 -40 -29 -47 -65 -22 -108 20
-33 20 -34 1 -24 -40 21 -100 -27 -100 -80 0 -16 -12 -38 -30 -55 -30 -29 -39
-59 -20 -70 6 -3 10 -17 10 -30 0 -13 -4 -27 -10 -30 -5 -3 -10 -17 -10 -30 0
-34 79 -88 104 -70 12 9 14 18 7 36 -10 29 26 109 61 133 48 34 82 15 110 -59
15 -37 15 -43 -3 -75 -11 -22 -16 -46 -13 -62 9 -43 -4 -66 -49 -92 -23 -14
-60 -43 -82 -65 -30 -32 -47 -41 -72 -41 -19 0 -62 -14 -96 -31 -98 -50 -111
-52 -142 -19 -22 23 -37 29 -88 33 -40 3 -74 -1 -96 -9 -46 -19 -68 -10 -80
34 -12 41 -115 152 -143 152 -9 0 -29 -10 -43 -23 l-27 -22 21 -79 c21 -79 32
-100 63 -123 22 -17 13 -48 -22 -73 -14 -10 -39 -42 -54 -71 -22 -43 -26 -60
-20 -96 8 -53 -1 -64 -91 -123 -34 -22 -67 -51 -73 -65 -8 -17 -24 -27 -54
-35 -24 -6 -67 -22 -96 -35 -64 -30 -102 -32 -125 -5 -11 14 -29 20 -56 20
-33 0 -44 6 -70 37 -36 44 -39 78 -9 110 30 32 127 34 157 2 12 -14 26 -19 39
-15 16 5 18 14 16 58 -3 58 -19 78 -58 71 -18 -4 -29 3 -46 27 -21 30 -24 31
-74 25 -28 -4 -63 -2 -78 4 -37 14 -84 -3 -102 -37 -13 -25 -14 -26 -20 -4
-12 35 -60 55 -101 42 -19 -6 -54 -8 -82 -5 -45 6 -49 5 -71 -24 -18 -24 -30
-31 -57 -31 -38 0 -44 -11 -43 -73 0 -31 5 -41 24 -49 20 -9 27 -8 38 7 20 27
129 34 156 10 30 -27 24 -63 -16 -111 -29 -36 -41 -44 -69 -44 -20 0 -50 -10
-71 -25 -39 -27 -34 -27 -134 18 -19 9 -54 21 -77 27 -31 8 -47 19 -58 39 -8
16 -34 40 -59 55 -24 14 -58 37 -74 51 -28 23 -29 28 -20 63 8 34 6 46 -22
100 -17 35 -45 72 -61 84 -16 12 -29 25 -29 30 0 4 13 22 29 40 27 32 61 131
61 182 0 28 -35 66 -61 66 -32 0 -137 -106 -149 -151 -12 -45 -30 -53 -74 -35
-48 20 -158 7 -189 -22 -32 -30 -56 -28 -137 13 -38 19 -84 35 -103 35 -25 0
-42 9 -72 41 -22 22 -56 50 -75 61 -50 30 -60 45 -50 78 6 21 3 38 -12 66
l-19 36 21 53 c21 52 48 75 89 75 36 0 88 -91 77 -136 -9 -34 30 -70 54 -50 8
7 23 16 33 19 27 10 32 37 14 69 -15 27 -15 32 -2 59 18 33 11 52 -30 93 -14
14 -25 36 -25 48 0 52 -55 97 -92 77 -22 -12 -22 -11 -5 8 29 33 22 81 -16
117 -21 20 -37 46 -41 69 -7 39 -29 57 -70 57 -18 0 -30 9 -41 30 -18 36 -24
36 -76 9 -34 -17 -40 -24 -37 -47 2 -21 9 -28 30 -30 21 -3 34 -16 58 -57 30
-52 30 -55 16 -84 -19 -37 -43 -45 -107 -36 -44 6 -53 12 -75 46 -14 23 -32
39 -43 39 -34 0 -51 28 -51 84 0 29 -7 73 -16 98 -13 41 -14 50 -1 75 8 15 18
64 21 108 10 109 12 113 57 127 31 9 48 23 73 62 19 28 36 67 40 87 9 51 25
61 83 54 49 -7 153 14 178 35 36 29 15 105 -32 116 -15 3 -51 13 -79 21 -40
12 -58 13 -83 5 -43 -15 -59 -6 -67 36 -4 21 -21 60 -38 89 -24 41 -41 56 -77
71 l-46 20 -8 88 c-4 49 -14 101 -22 115 -14 24 -14 31 1 74 9 27 16 72 16
100 0 55 20 95 48 95 9 0 33 19 53 42 34 39 40 42 95 46 66 5 87 -8 87 -52 0
-34 -59 -115 -88 -122 -43 -11 -33 -48 22 -79 l46 -28 27 32 c16 20 39 35 60
40 30 6 37 13 48 46 7 22 26 52 43 67 33 30 39 79 15 114 -13 19 -12 20 19 16
39 -5 75 25 75 62 0 13 16 43 35 66 19 23 35 44 35 46 0 3 -7 18 -15 34 -13
26 -13 32 2 58 21 36 14 55 -34 85 -49 32 -76 21 -68 -26 4 -23 -2 -45 -22
-82 -27 -48 -29 -50 -73 -50 -44 0 -46 1 -69 48 l-24 49 20 41 c13 27 18 49
13 62 -12 33 6 62 62 98 29 19 66 48 82 66 20 20 39 31 58 31 16 0 66 18 112
40 46 22 87 40 92 40 5 0 25 -14 43 -31 34 -30 36 -31 110 -26 42 3 91 9 109
13 28 5 32 4 32 -16 0 -32 18 -59 77 -119 55 -55 87 -66 118 -41 20 16 19 50
-5 135 -12 45 -27 77 -43 91 -27 23 -22 54 13 76 12 7 35 40 51 72 27 53 29
64 20 100 -5 22 -8 43 -5 47 2 4 35 28 73 53 38 25 80 61 95 80 18 25 36 36
64 41 22 3 66 19 98 36 33 16 64 29 70 29 5 0 25 -11 44 -25z m-3130 -29 c0
-3 -4 -8 -10 -11 -5 -3 -10 -1 -10 4 0 6 5 11 10 11 6 0 10 -2 10 -4z m6860
-6 c0 -5 -4 -10 -10 -10 -5 0 -10 5 -10 10 0 6 5 10 10 10 6 0 10 -4 10 -10z
m-578 -42 c-7 -7 -12 -8 -12 -2 0 14 12 26 19 19 2 -3 -1 -11 -7 -17z m-5712
8 c0 -3 -4 -8 -10 -11 -5 -3 -10 -1 -10 4 0 6 5 11 10 11 6 0 10 -2 10 -4z
m-775 -36 c3 -5 -3 -10 -15 -10 -12 0 -18 5 -15 10 3 6 10 10 15 10 5 0 12 -4
15 -10z m7280 0 c-3 -5 -14 -10 -23 -10 -15 0 -15 2 -2 10 20 13 33 13 25 0z
m-7759 -21 c4 -7 23 -8 52 -4 42 6 45 5 32 -10 -27 -33 -49 -37 -77 -16 -14
12 -32 21 -39 21 -8 0 -14 5 -14 10 0 14 37 13 46 -1z m8240 -4 c-11 -8 -25
-15 -32 -15 -6 0 -17 -7 -24 -15 -15 -18 -20 -18 -45 1 -17 13 -18 16 -5 24 8
5 25 7 37 4 12 -3 30 -1 40 5 10 6 25 10 33 10 11 0 10 -3 -4 -14z m-7616 1
c0 -3 -4 -8 -10 -11 -5 -3 -10 -1 -10 4 0 6 5 11 10 11 6 0 10 -2 10 -4z
m6980 -6 c0 -5 -4 -10 -10 -10 -5 0 -10 5 -10 10 0 6 5 10 10 10 6 0 10 -4 10
-10z m-275 -90 c-3 -5 -12 -10 -18 -10 -7 0 -6 4 3 10 19 12 23 12 15 0z
m-6428 -6 c-3 -3 -12 -4 -19 -1 -8 3 -5 6 6 6 11 1 17 -2 13 -5z m153 -24 c0
-12 7 -31 15 -44 20 -30 7 -41 -58 -49 -39 -6 -49 -4 -54 10 -4 9 1 21 12 29
15 11 22 10 43 -6 29 -23 42 -25 42 -7 0 19 -37 50 -49 42 -7 -3 -11 2 -11 14
0 20 12 29 43 30 11 1 17 -6 17 -19z m6158 11 c15 -9 2 -22 -31 -34 -22 -8
-33 -35 -20 -48 7 -7 23 -4 49 10 34 19 39 19 42 6 7 -32 -17 -44 -71 -38 -29
3 -53 7 -55 8 -2 1 4 18 12 36 8 19 17 42 20 52 6 18 32 22 54 8z m-7222 -198
c-10 -10 -19 5 -10 18 6 11 8 11 12 0 2 -7 1 -15 -2 -18z m8236 5 c-7 -7 -12
-8 -12 -2 0 14 12 26 19 19 2 -3 -1 -11 -7 -17z m-6681 -156 c-12 -17 -21 -35
-21 -40 0 -6 -5 -14 -12 -18 -7 -4 -8 -3 -4 4 4 6 0 25 -9 42 -15 29 -15 30 7
30 13 0 30 4 38 10 23 15 24 3 1 -28z m5157 -16 c-6 -17 -12 -32 -13 -34 -4
-5 -45 64 -45 76 0 7 11 7 34 0 33 -10 34 -12 24 -42z m-5763 -6 c-3 -5 -11
-10 -16 -10 -6 0 -7 5 -4 10 3 6 11 10 16 10 6 0 7 -4 4 -10z m6350 0 c-3 -5
-10 -10 -16 -10 -5 0 -9 5 -9 10 0 6 7 10 16 10 8 0 12 -4 9 -10z m-5058 -160
c0 -16 12 -47 27 -69 l28 -40 -22 -36 c-15 -24 -20 -45 -17 -63 5 -23 1 -30
-23 -40 -16 -7 -38 -28 -48 -46 -19 -32 -23 -34 -75 -32 -41 1 -60 -4 -76 -18
-25 -23 -26 -15 -7 64 7 30 11 72 8 92 -7 62 3 84 49 102 23 10 67 39 98 66
31 28 56 50 57 50 0 0 1 -13 1 -30z m3818 -25 c37 -30 75 -55 85 -55 33 0 49
-32 48 -95 -1 -33 2 -86 6 -119 l9 -58 -32 17 c-23 11 -44 14 -76 10 -42 -7
-44 -6 -69 33 -14 22 -34 43 -46 47 -14 4 -20 15 -20 35 0 16 -7 45 -17 64
-16 34 -15 35 10 66 19 22 27 43 27 71 0 21 2 39 4 39 2 0 35 -25 71 -55z
m-5135 35 c0 -5 -5 -10 -11 -10 -5 0 -7 5 -4 10 3 6 8 10 11 10 2 0 4 -4 4
-10z m-980 -121 c-13 -23 -36 -25 -44 -4 -3 10 -19 15 -47 15 -36 0 -40 2 -29
15 7 8 27 15 46 15 18 0 36 5 40 12 5 8 13 4 25 -11 14 -17 16 -27 9 -42z
m8433 41 c17 0 27 -5 27 -15 0 -10 -10 -15 -34 -15 -18 0 -39 -7 -46 -15 -17
-20 -50 -19 -50 2 0 27 32 55 55 49 11 -3 32 -6 48 -6z m-1530 -173 c23 -8 60
-26 81 -41 34 -23 46 -26 83 -20 24 3 43 3 43 -1 0 -4 -9 -23 -21 -42 -31 -50
-20 -89 44 -156 64 -67 89 -81 132 -73 34 7 51 21 70 60 12 24 55 35 55 14 0
-8 -12 -30 -26 -49 -47 -63 -16 -125 83 -170 93 -42 126 -39 174 13 21 23 40
40 42 38 2 -3 9 -24 16 -47 7 -26 22 -49 38 -60 15 -10 46 -37 69 -61 29 -30
51 -43 73 -45 17 -1 31 -3 31 -3 0 -1 -18 -14 -41 -28 l-41 -28 7 -81 c5 -63
13 -90 31 -118 29 -43 25 -61 -22 -90 -19 -11 -41 -33 -48 -48 -13 -24 -12
-30 5 -58 11 -18 36 -41 55 -52 39 -24 42 -36 13 -67 -14 -15 -24 -45 -31 -98
-12 -94 -6 -120 32 -143 37 -21 38 -33 4 -33 -17 0 -41 -15 -69 -42 -24 -24
-57 -53 -74 -66 -19 -15 -33 -36 -37 -58 -9 -50 -29 -53 -67 -9 -28 32 -39 38
-72 37 -47 0 -142 -40 -170 -72 -28 -31 -26 -92 5 -125 19 -20 22 -29 14 -43
-19 -30 -41 -25 -59 11 -18 38 -50 57 -96 57 -34 0 -120 -73 -146 -124 -17
-33 -11 -80 13 -107 29 -32 11 -51 -43 -44 -41 6 -53 3 -82 -19 -19 -14 -50
-31 -70 -37 -20 -6 -48 -25 -62 -41 l-25 -30 -12 40 c-16 51 -25 59 -111 81
-57 15 -79 17 -106 8 -42 -12 -65 2 -65 42 0 15 -18 54 -40 88 -32 51 -46 62
-77 70 -28 6 -39 14 -41 31 -2 14 2 22 12 22 19 0 52 46 61 88 10 48 -3 88
-41 124 -19 18 -34 39 -34 46 0 8 14 31 30 52 40 51 62 106 56 139 -10 47 37
81 114 81 74 0 90 -49 40 -123 -35 -53 -48 -59 -101 -51 -47 8 -69 -7 -69 -45
0 -46 43 -68 70 -36 17 20 37 19 71 -6 34 -24 55 -20 71 16 7 17 19 25 35 25
39 0 60 17 67 54 4 19 18 44 31 54 52 41 56 95 12 149 -13 15 -27 40 -31 56
-11 46 -40 67 -94 67 -28 0 -62 8 -85 20 -66 36 -120 21 -153 -42 -15 -28 -19
-30 -56 -25 -42 6 -87 -6 -101 -26 -5 -7 -5 11 -1 38 11 64 10 116 -1 185 l-8
54 27 -18 c19 -12 43 -17 78 -15 48 3 53 1 72 -30 22 -35 59 -60 89 -61 10 0
35 9 57 20 22 11 59 20 85 20 35 0 52 6 70 25 14 13 25 33 25 43 0 11 14 37
31 58 39 49 35 96 -10 134 -17 14 -34 43 -40 66 -12 43 -25 54 -67 54 -16 0
-28 9 -39 30 -18 35 -32 37 -82 10 -34 -18 -38 -18 -54 -4 -10 9 -28 14 -41
12 -31 -4 -37 -49 -9 -77 17 -17 28 -19 69 -14 l49 5 32 -45 c37 -54 38 -75
10 -112 -21 -25 -25 -27 -78 -20 -69 8 -84 22 -86 77 -2 48 -31 113 -64 142
-31 28 -26 52 19 95 28 26 40 46 40 66 0 50 -23 106 -54 132 -36 31 -28 50 30
70 30 11 46 25 72 67 17 30 32 65 32 79 0 43 24 58 83 52 34 -4 75 1 117 12
68 19 69 21 97 113 3 10 10 5 24 -17 13 -20 35 -37 62 -46z m-5345 -20 c32
-28 178 -55 209 -39 27 15 42 2 51 -44 4 -21 23 -63 41 -92 27 -41 43 -55 74
-64 50 -15 58 -35 23 -60 -36 -27 -56 -69 -56 -119 0 -35 6 -47 40 -81 22 -22
40 -46 40 -53 0 -7 -14 -30 -31 -51 -41 -51 -59 -94 -59 -142 0 -51 -22 -70
-91 -78 -52 -6 -57 -5 -77 21 -12 15 -22 31 -22 35 0 9 62 103 75 113 5 4 31
6 57 3 67 -7 95 24 68 75 -13 23 -47 25 -69 4 -15 -12 -22 -11 -60 8 l-43 22
-26 -33 c-18 -22 -36 -32 -54 -32 -29 0 -58 -31 -58 -62 0 -9 -16 -33 -35 -52
-43 -44 -48 -91 -11 -125 12 -12 28 -39 35 -61 16 -54 52 -80 112 -80 31 0 60
-7 81 -20 55 -33 104 -20 138 37 18 31 22 33 76 33 40 0 63 5 77 18 20 17 20
16 13 -18 -17 -79 -18 -113 -7 -171 7 -33 10 -63 8 -65 -2 -2 -17 2 -33 11
-20 10 -43 13 -76 9 -44 -6 -47 -5 -62 24 -32 63 -83 77 -149 42 -21 -11 -56
-20 -81 -20 -48 0 -96 -29 -96 -59 0 -10 -13 -35 -30 -57 -41 -54 -40 -93 5
-137 19 -19 35 -43 35 -54 0 -31 31 -64 63 -67 17 -2 39 -16 57 -37 l28 -34
41 23 c39 22 43 23 66 8 13 -9 31 -16 39 -16 22 0 29 36 14 67 -13 26 -17 28
-71 25 l-57 -2 -36 54 c-35 53 -35 55 -20 85 19 36 49 46 114 37 54 -7 64 -20
66 -85 1 -39 9 -58 44 -104 23 -31 42 -62 42 -70 0 -7 -18 -31 -40 -52 -33
-32 -40 -46 -40 -78 0 -47 24 -101 56 -126 32 -25 22 -48 -28 -63 -31 -9 -47
-23 -72 -63 -18 -28 -36 -67 -40 -87 -9 -50 -27 -63 -67 -49 -25 9 -46 7 -106
-9 -42 -11 -81 -24 -88 -30 -7 -6 -18 -31 -24 -57 l-12 -46 -25 36 c-16 25
-36 40 -62 46 -21 6 -53 22 -72 37 -30 22 -42 25 -82 19 -52 -6 -61 4 -32 36
18 20 21 87 5 116 -5 10 -34 42 -65 71 -44 42 -61 52 -89 52 -37 0 -82 -29
-92 -59 -8 -25 -34 -35 -52 -20 -12 10 -10 16 12 39 18 18 25 37 25 64 0 62
-21 89 -92 119 -99 41 -129 40 -174 -8 -18 -19 -37 -35 -43 -35 -6 0 -15 18
-21 39 -6 25 -22 49 -41 63 -17 13 -50 42 -74 66 -24 23 -53 42 -64 42 -18 0
-16 5 15 33 l36 33 -11 85 c-7 55 -18 94 -32 112 -24 33 -20 49 18 73 39 24
63 55 63 81 0 22 -49 79 -85 99 -21 12 -22 6 19 84 8 14 17 58 21 98 l6 73
-35 34 -35 33 29 6 c16 3 42 20 57 37 15 17 45 42 65 55 23 15 40 35 44 52 4
15 13 37 21 50 l15 24 37 -41 c31 -33 45 -41 74 -41 45 0 162 52 176 79 20 36
13 94 -14 125 -19 22 -22 32 -14 43 16 19 48 16 56 -4 19 -54 89 -87 134 -63
42 23 119 112 120 139 2 45 -2 65 -18 83 -9 10 -13 25 -9 34 5 13 15 15 49 10
36 -6 49 -3 81 19 21 14 56 32 77 39 22 8 49 26 61 42 l23 28 8 -36 c5 -20 16
-43 25 -51z m-1472 52 c3 -5 -4 -21 -15 -35 -12 -15 -21 -32 -21 -39 0 -7 -8
-19 -17 -26 -15 -13 -16 -12 -8 6 5 11 10 36 11 55 1 19 2 40 3 47 1 12 38 6
47 -8z m8215 -16 c-7 -14 -6 -27 4 -46 9 -18 10 -29 3 -33 -11 -7 -28 13 -28
32 0 6 -9 19 -20 29 -15 14 -17 20 -7 30 31 31 67 22 48 -12z m-7354 -33 c14
-11 31 -20 38 -20 7 0 15 -6 18 -14 5 -14 -32 -16 -125 -7 -17 2 22 61 40 61
2 0 15 -9 29 -20z m6497 14 c19 -7 22 -54 4 -55 -7 -1 -24 0 -38 0 -14 1 -38
-3 -53 -8 -42 -16 -33 6 12 29 22 11 42 24 46 30 7 12 8 12 29 4z m-7089 -34
c-3 -5 -11 -10 -16 -10 -6 0 -7 5 -4 10 3 6 11 10 16 10 6 0 7 -4 4 -10z
m7650 0 c-3 -5 -11 -10 -16 -10 -6 0 -7 5 -4 10 3 6 11 10 16 10 6 0 7 -4 4
-10z m-7188 -75 c0 -8 -6 -16 -14 -19 -7 -3 -13 -20 -13 -38 0 -70 -31 -71
-36 -2 -1 18 -5 38 -9 44 -10 16 23 38 50 33 12 -3 22 -11 22 -18z m6772 16
c10 -6 11 -13 2 -29 -6 -11 -11 -34 -11 -50 0 -16 -7 -35 -15 -42 -16 -13 -19
-7 -16 36 1 12 -5 29 -14 37 -20 20 -16 40 10 49 28 9 28 9 44 -1z m-6799
-1843 c0 -17 7 -40 16 -50 14 -15 15 -20 4 -33 -16 -19 -66 -16 -62 3 1 7 4
27 6 45 9 68 36 94 36 35z m6790 -9 c0 -17 5 -40 11 -51 13 -25 -1 -38 -43
-38 -31 0 -37 20 -13 40 8 7 14 24 13 39 -2 31 9 54 23 46 5 -4 9 -20 9 -36z
m-1326 -138 c-9 -40 -12 -82 -8 -112 8 -57 -1 -71 -60 -98 -22 -10 -65 -39
-93 -65 l-53 -48 0 34 c0 21 -10 48 -25 68 -29 39 -31 53 -10 70 9 7 15 29 15
55 0 35 4 44 25 53 14 7 35 28 46 47 20 34 22 35 81 34 43 -1 64 3 76 14 9 9
17 15 19 14 1 -2 -4 -31 -13 -66z m-4147 48 c11 -11 96 -15 111 -5 5 3 16 -11
27 -29 10 -19 31 -40 46 -47 22 -10 27 -17 23 -35 -4 -14 3 -39 15 -64 21 -40
21 -42 4 -66 -35 -50 -43 -68 -40 -90 6 -33 -5 -29 -68 26 -31 28 -70 53 -85
56 -42 9 -51 26 -49 91 1 33 -3 79 -9 104 -7 25 -12 51 -12 58 0 15 22 16 37
1z m-2047 -63 c0 -5 8 -18 17 -29 17 -18 17 -20 -6 -38 -29 -24 -36 -19 -33
27 2 20 -2 42 -8 50 -7 7 -8 19 -4 25 5 9 11 7 21 -6 7 -11 13 -23 13 -29z
m935 24 c-10 -11 -22 -20 -27 -20 -6 0 -21 -9 -35 -19 -29 -24 -49 -18 -55 14
-6 29 8 36 55 28 20 -3 37 -1 41 6 4 6 14 11 23 11 14 0 14 -3 -2 -20z m6381
9 c4 -7 22 -9 49 -4 40 5 43 4 38 -14 -3 -11 -13 -27 -23 -36 -15 -14 -20 -14
-31 -2 -8 7 -27 20 -43 28 -16 8 -31 20 -34 27 -5 15 34 16 44 1z m930 -24
c-11 -20 -12 -34 -5 -47 12 -23 4 -38 -20 -38 -31 0 -43 24 -20 38 10 7 19 18
19 25 0 15 30 60 36 54 2 -2 -2 -17 -10 -32z m-7951 -5 c-3 -5 -10 -10 -16
-10 -5 0 -9 5 -9 10 0 6 7 10 16 10 8 0 12 -4 9 -10z m7650 0 c-3 -5 -11 -10
-16 -10 -6 0 -7 5 -4 10 3 6 11 10 16 10 6 0 7 -4 4 -10z m-7998 -157 c-2 -10
-8 -28 -15 -39 -10 -19 -18 -21 -59 -17 -73 8 -90 37 -21 35 18 0 40 5 48 12
12 11 26 18 47 25 2 1 2 -7 0 -16z m8420 -19 c10 3 24 2 32 -3 19 -12 -1 -23
-58 -32 -36 -5 -48 -3 -58 10 -16 21 -16 27 3 46 15 15 18 14 39 -5 14 -13 30
-20 42 -16z m-1661 -241 c0 -10 4 -29 8 -43 5 -14 5 -22 1 -18 -3 3 -20 2 -36
-2 -27 -8 -28 -7 -17 13 13 25 39 67 42 67 1 0 2 -8 2 -17z m-5156 -25 c11
-18 20 -35 20 -38 0 -3 -17 -4 -38 -2 l-39 4 16 34 c8 19 17 34 18 34 2 0 12
-15 23 -32z m-605 2 c-3 -5 -11 -10 -16 -10 -6 0 -7 5 -4 10 3 6 11 10 16 10
6 0 7 -4 4 -10z m6350 0 c-3 -5 -11 -10 -16 -10 -6 0 -7 5 -4 10 3 6 11 10 16
10 6 0 7 -4 4 -10z m975 -30 c0 -5 -5 -10 -11 -10 -5 0 -7 5 -4 10 3 6 8 10
11 10 2 0 4 -4 4 -10z m-5910 -36 c0 -57 75 -134 130 -134 13 0 39 5 57 12 43
16 64 4 76 -43 11 -44 51 -96 93 -121 42 -25 47 -40 27 -91 -25 -65 -41 -78
-87 -75 -37 3 -43 7 -63 48 -28 58 -28 69 2 110 31 42 31 52 1 87 -21 23 -28
26 -43 17 -12 -8 -17 -23 -16 -43 1 -27 -5 -36 -38 -57 -43 -27 -47 -42 -23
-79 15 -23 15 -27 0 -50 -22 -33 -20 -44 12 -80 16 -16 34 -49 41 -73 16 -56
47 -77 105 -69 24 4 58 2 76 -3 42 -12 83 8 100 50 7 18 31 43 52 56 64 40 79
102 40 162 -13 20 -12 26 13 63 19 27 28 51 27 75 -1 32 0 34 19 23 12 -6 38
-26 59 -45 21 -20 66 -44 100 -56 l63 -21 -27 -16 c-14 -8 -35 -35 -46 -58
-11 -24 -23 -43 -28 -44 -4 0 -25 -2 -46 -3 -55 -4 -96 -50 -96 -109 0 -24 -8
-56 -20 -75 -28 -46 -25 -83 10 -127 17 -21 30 -44 30 -51 0 -7 12 -26 26 -43
20 -24 34 -31 61 -31 19 0 42 4 51 9 11 6 33 5 60 -2 42 -11 44 -11 68 21 20
25 33 32 59 32 36 0 52 23 41 58 -7 22 5 41 35 56 31 15 35 47 10 70 -32 29
-63 17 -88 -35 -21 -46 -22 -46 -83 -53 -111 -13 -142 38 -75 120 43 52 67 57
122 26 36 -20 53 -23 124 -20 l83 3 8 -44 c4 -24 15 -53 25 -64 38 -42 116
-59 168 -35 35 16 46 -2 33 -49 -8 -30 -5 -44 21 -97 16 -34 44 -72 60 -84 34
-25 33 -41 -5 -82 -12 -14 -26 -38 -29 -55 -4 -16 -13 -49 -21 -73 -8 -23 -14
-45 -14 -47 0 -3 16 -23 36 -45 l36 -40 -26 0 c-33 0 -74 -20 -100 -49 -11
-12 -25 -21 -31 -21 -22 0 -67 -43 -81 -77 -17 -39 -41 -43 -54 -9 -12 34 -58
66 -92 66 -46 0 -141 -30 -165 -52 -39 -36 -39 -86 -1 -141 11 -15 10 -20 -7
-33 -26 -19 -31 -16 -57 36 -19 37 -30 47 -61 54 -46 12 -85 -6 -153 -69 -37
-35 -44 -48 -44 -78 0 -21 5 -46 12 -56 6 -10 9 -25 5 -33 -4 -13 -13 -14 -51
-5 -40 9 -53 7 -94 -11 -26 -11 -60 -24 -77 -27 -16 -4 -42 -18 -56 -32 l-27
-25 -7 40 c-3 22 -12 47 -18 55 -19 25 -140 67 -190 67 -50 0 -55 6 -55 71 0
14 -7 38 -17 53 -14 20 -25 26 -54 26 -21 0 -46 -7 -57 -15 -10 -8 -31 -15
-46 -15 -21 0 -29 6 -38 35 -7 22 -29 47 -62 72 -94 70 -90 69 -135 47 l-41
-20 9 28 c5 19 3 43 -7 70 -8 22 -14 56 -14 75 0 40 -12 67 -48 105 -28 30
-26 32 39 42 57 10 79 42 90 130 8 60 6 83 -5 110 -19 45 -63 68 -115 60 -22
-4 -41 -2 -45 4 -9 15 23 43 48 41 44 -3 58 2 81 27 30 33 31 65 5 154 -26 86
-56 116 -116 113 -50 -2 -53 3 -22 42 18 23 22 42 24 127 2 55 -1 111 -7 125
-9 24 -8 24 23 18 18 -4 41 -9 50 -11 24 -7 127 96 143 143 17 50 35 60 78 45
18 -7 61 -12 95 -12 54 0 66 4 94 30 42 38 68 39 68 4z m3577 -5 c34 -29 38
-30 107 -26 39 3 88 9 109 12 36 7 37 7 37 -25 0 -26 12 -44 69 -101 73 -73
85 -77 144 -47 17 9 17 8 2 -23 -13 -25 -15 -40 -7 -73 5 -22 7 -60 5 -84 -4
-35 0 -50 22 -82 31 -45 26 -64 -15 -55 -30 7 -77 -12 -98 -38 -16 -18 -42
-118 -42 -158 0 -61 63 -113 123 -102 26 5 28 3 25 -18 -3 -22 -7 -24 -46 -21
-49 3 -94 -19 -113 -54 -9 -17 -9 -43 -1 -105 9 -70 15 -86 40 -111 19 -20 43
-31 70 -35 l42 -6 -35 -38 c-27 -31 -35 -48 -35 -78 0 -21 -7 -58 -15 -81 -9
-26 -13 -57 -9 -77 l6 -33 -42 15 c-47 16 -50 15 -133 -45 -28 -20 -54 -50
-64 -72 -19 -42 -40 -48 -83 -23 -14 8 -42 14 -62 15 -45 0 -60 -21 -68 -95
l-5 -50 -50 -3 c-47 -3 -169 -43 -190 -63 -5 -5 -12 -29 -15 -54 l-5 -45 -28
24 c-16 14 -43 28 -60 31 -18 3 -53 15 -79 27 -41 18 -54 20 -93 11 -51 -12
-61 -5 -40 23 17 22 19 62 6 97 -15 38 -130 127 -164 127 -45 0 -84 -26 -97
-64 -6 -20 -19 -36 -31 -39 -27 -7 -35 16 -15 45 26 36 20 93 -11 128 -28 31
-112 60 -172 60 -33 0 -79 -33 -91 -66 -14 -36 -34 -29 -57 19 -15 31 -31 48
-55 57 -18 8 -51 29 -73 48 -29 25 -47 32 -67 29 -35 -5 -35 -2 2 30 32 26 37
50 20 99 -5 16 -14 48 -20 72 -6 24 -22 53 -36 64 -32 29 -30 41 9 75 19 15
46 53 60 84 23 49 25 60 15 93 -10 31 -9 39 5 53 13 14 20 14 47 3 36 -15 101
-8 135 14 14 10 29 33 36 58 19 74 18 73 109 70 68 -3 87 0 116 17 55 33 87
28 123 -18 38 -47 39 -74 5 -108 -22 -22 -31 -25 -71 -19 -25 3 -54 6 -64 6
-12 0 -26 16 -41 48 -20 40 -27 47 -52 47 -55 0 -61 -56 -8 -80 17 -8 22 -18
22 -50 0 -49 14 -65 55 -65 22 0 37 -9 57 -32 26 -32 27 -32 69 -21 27 7 51 8
66 2 60 -22 102 -4 118 51 4 14 21 40 36 58 36 40 36 60 4 129 -14 29 -23 58
-19 64 3 6 -2 31 -11 55 -19 51 -56 76 -107 72 -30 -3 -34 1 -56 46 -13 27
-31 50 -42 53 -34 9 -23 18 49 41 38 12 75 29 82 38 6 8 30 29 51 46 38 30 39
30 33 7 -4 -17 3 -38 25 -71 l31 -46 -22 -36 c-15 -27 -19 -45 -15 -69 6 -33
46 -79 78 -90 9 -3 26 -24 38 -46 26 -51 66 -74 109 -61 18 5 54 6 80 3 41 -5
52 -2 70 16 11 11 21 32 21 45 0 13 16 43 35 66 34 41 34 42 20 77 -14 33 -14
39 1 61 21 32 7 65 -36 87 -26 13 -31 21 -26 40 8 33 -26 74 -50 59 -34 -20
-40 -42 -22 -72 44 -70 44 -70 13 -131 -28 -52 -33 -56 -68 -59 -45 -4 -63 8
-83 57 -20 49 -11 76 37 106 42 27 74 71 84 116 9 40 39 63 72 55 73 -19 92
-18 127 3 35 22 66 73 66 109 0 19 11 29 34 31 4 1 24 -13 43 -30z m2299 -116
c-10 -10 -19 5 -10 18 6 11 8 11 12 0 2 -7 1 -15 -2 -18z m-8242 2 c-4 -8 -8
-15 -10 -15 -2 0 -4 7 -4 15 0 8 4 15 10 15 5 0 7 -7 4 -15z m1067 -85 c16 0
29 -1 29 -3 0 -1 -9 -20 -20 -42 -11 -22 -20 -45 -20 -52 0 -14 -28 -17 -47
-5 -15 10 -4 27 24 36 24 8 38 35 24 49 -11 11 -51 0 -51 -14 0 -5 -9 -9 -20
-9 -22 0 -25 12 -10 40 9 16 15 18 36 10 14 -6 39 -10 55 -10z m6193 -24 c-8
-20 -31 -21 -50 -1 -19 18 -44 20 -44 2 0 -19 21 -37 42 -37 21 0 24 -20 6
-38 -22 -22 -43 -13 -56 26 -22 64 -21 66 31 73 27 4 52 10 55 14 10 9 23 -22
16 -39z m-7724 -151 c19 -4 54 -18 78 -32 29 -16 55 -24 80 -22 39 3 40 2 21
-47 -19 -47 -3 -83 65 -151 51 -51 69 -63 95 -63 44 0 65 13 90 55 20 34 44
45 56 26 3 -5 -6 -27 -21 -48 -31 -46 -28 -93 11 -133 14 -14 25 -32 25 -39 0
-26 35 -71 65 -85 20 -10 45 -13 68 -9 30 4 37 2 37 -10 0 -21 -13 -28 -60
-31 -46 -4 -68 -19 -85 -60 -10 -23 -9 -41 5 -95 27 -104 49 -133 114 -145 40
-7 41 -11 17 -42 -14 -18 -21 -41 -21 -71 0 -24 -5 -64 -11 -88 -9 -37 -8 -52
5 -85 16 -40 16 -41 -3 -30 -11 5 -37 10 -58 10 -33 0 -45 -7 -90 -53 -29 -30
-58 -70 -65 -93 -12 -36 -16 -39 -48 -36 -179 15 -175 16 -213 -18 -42 -36
-45 -36 -151 17 -38 19 -77 33 -86 30 -24 -6 -34 1 -117 85 -42 42 -73 82 -73
93 0 11 -9 38 -21 60 -18 33 -19 44 -10 76 19 61 47 89 92 89 36 0 40 -3 64
-50 31 -61 31 -71 0 -108 -32 -38 -32 -62 0 -92 34 -32 61 -17 57 29 -2 26 4
34 38 56 45 28 47 35 24 74 -15 25 -15 31 -1 57 18 35 9 63 -27 92 -16 12 -26
30 -26 46 0 29 -44 106 -60 106 -10 0 -15 9 -40 78 -11 27 -17 32 -47 32 -27
0 -37 6 -51 30 -20 34 -38 37 -81 13 -29 -17 -32 -17 -60 0 -36 21 -61 13 -61
-20 0 -51 16 -63 80 -63 59 0 59 0 90 -45 25 -36 30 -52 25 -76 -10 -44 -40
-60 -104 -52 -45 5 -56 11 -79 42 -15 19 -37 45 -49 56 -14 12 -32 53 -48 108
-29 102 -30 115 -10 153 8 16 15 58 16 94 1 95 9 113 50 125 39 11 69 32 69
47 0 6 11 23 25 40 15 18 25 42 25 60 0 50 23 68 70 56 31 -8 55 -6 107 7 83
22 100 36 108 85 l7 39 32 -33 c17 -19 47 -37 66 -41z m1385 65 c-3 -5 -11
-10 -16 -10 -6 0 -7 5 -4 10 3 6 11 10 16 10 6 0 7 -4 4 -10z m7901 -73 c16
-27 157 -62 199 -50 43 14 65 0 65 -40 0 -50 66 -139 117 -156 38 -14 41 -18
47 -59 3 -25 6 -66 6 -91 0 -27 7 -56 16 -69 17 -25 17 -26 -16 -152 -15 -60
-30 -94 -50 -115 -16 -16 -42 -44 -57 -62 -22 -25 -38 -32 -80 -37 -44 -6 -56
-3 -73 14 -29 29 -25 58 15 113 35 47 35 47 94 47 52 0 61 3 66 21 9 28 -1 66
-21 73 -9 3 -29 -2 -45 -11 -27 -16 -31 -16 -58 0 -41 24 -56 21 -81 -13 -15
-21 -30 -30 -49 -30 -34 0 -49 -15 -57 -59 -4 -18 -17 -39 -31 -48 -27 -18
-63 -82 -63 -111 0 -10 -9 -27 -21 -38 -36 -32 -41 -51 -24 -84 15 -28 14 -33
-2 -61 -21 -35 -13 -54 33 -80 23 -13 28 -22 26 -44 -3 -27 21 -65 41 -65 17
0 47 32 47 51 0 10 -11 31 -25 47 -32 38 -31 55 3 117 26 49 28 50 72 50 44 0
45 -1 69 -49 l23 -50 -21 -43 c-12 -24 -21 -53 -21 -64 0 -20 -127 -164 -164
-185 -10 -6 -27 -9 -36 -7 -10 3 -48 -11 -86 -30 -106 -53 -109 -53 -151 -17
-34 30 -38 31 -107 27 -39 -3 -88 -9 -108 -12 -34 -7 -38 -5 -38 15 0 32 -17
59 -74 118 -53 54 -91 66 -136 42 -18 -10 -18 -8 -6 21 11 27 11 42 0 88 -7
31 -10 68 -7 83 3 18 -2 40 -16 63 -26 45 -26 55 -1 55 38 0 89 28 103 57 21
44 40 138 33 166 -3 15 -17 39 -30 54 -21 24 -31 28 -71 26 -42 -1 -46 0 -43
20 3 19 9 22 56 22 48 0 57 4 83 33 16 18 29 40 29 49 0 9 12 29 26 44 35 37
38 96 6 139 -19 25 -21 34 -12 46 18 21 39 17 49 -8 14 -36 46 -59 90 -65 37
-5 43 -2 95 47 69 65 84 103 62 165 l-15 45 47 0 c30 0 58 7 77 20 17 11 53
27 82 35 39 11 57 23 70 45 l18 30 10 -32 c5 -18 15 -41 21 -51z m-8740 -2
c16 -12 17 -16 4 -24 -8 -5 -26 -7 -41 -4 -15 3 -36 0 -49 -7 -41 -22 -31 -2
12 23 53 31 50 30 74 12z m8123 1 c7 -8 23 -17 36 -20 14 -4 25 -11 25 -17 0
-7 -8 -9 -22 -4 -13 5 -44 8 -69 9 -50 0 -56 15 -16 34 30 14 33 14 46 -2z
m-7569 -20 c0 -3 -4 -8 -10 -11 -5 -3 -10 -1 -10 4 0 6 5 11 10 11 6 0 10 -2
10 -4z m-155 -35 c-3 -6 -11 -11 -17 -11 -6 0 -6 6 2 15 14 17 26 13 15 -4z
m7285 9 c0 -5 -7 -10 -16 -10 -8 0 -12 5 -9 10 3 6 10 10 16 10 5 0 9 -4 9
-10z m-7563 -33 c16 -9 20 -16 13 -27 -5 -8 -10 -29 -10 -47 0 -17 -4 -35 -10
-38 -5 -3 -10 -3 -11 2 -4 58 -9 78 -18 81 -15 5 -14 42 2 42 6 -1 22 -6 34
-13z m7873 -1 c0 -7 -7 -19 -15 -26 -8 -7 -15 -27 -15 -46 0 -40 -20 -57 -21
-17 0 15 -4 37 -8 48 -6 15 -2 24 18 37 31 22 41 22 41 4z m-6810 -6 c0 -5 -4
-10 -10 -10 -5 0 -10 5 -10 10 0 6 5 10 10 10 6 0 10 -4 10 -10z m5720 0 c0
-5 -5 -10 -11 -10 -5 0 -7 5 -4 10 3 6 8 10 11 10 2 0 4 -4 4 -10z m-6290 -34
c0 -3 -4 -8 -10 -11 -5 -3 -10 -1 -10 4 0 6 5 11 10 11 6 0 10 -2 10 -4z
m6860 -6 c0 -5 -5 -10 -11 -10 -5 0 -7 5 -4 10 3 6 8 10 11 10 2 0 4 -4 4 -10z
m-6170 -60 c0 -5 -5 -10 -11 -10 -5 0 -7 5 -4 10 3 6 8 10 11 10 2 0 4 -4 4
-10z m5480 0 c0 -5 -5 -10 -11 -10 -5 0 -7 5 -4 10 3 6 8 10 11 10 2 0 4 -4 4
-10z m-2718 -47 c12 -11 34 -17 59 -16 38 2 41 0 59 -42 11 -26 30 -50 47 -59
31 -16 34 -13 -60 -46 -32 -10 -72 -31 -88 -45 -39 -32 -69 -32 -108 1 -16 14
-61 35 -98 48 -67 23 -68 24 -41 36 16 8 36 31 48 56 11 24 23 45 28 45 4 1
24 3 45 4 21 1 46 10 55 19 21 20 31 20 54 -1z m-3547 -3 c-3 -5 -14 -10 -23
-10 -15 0 -15 2 -2 10 20 13 33 13 25 0z m7060 0 c3 -5 -3 -10 -15 -10 -12 0
-18 5 -15 10 3 6 10 10 15 10 5 0 12 -4 15 -10z m-6013 -108 c-18 -15 -32 -35
-32 -45 0 -23 -26 -33 -45 -17 -22 18 -19 50 4 50 10 0 29 9 42 20 13 10 33
19 44 19 17 0 15 -4 -13 -27z m4975 8 c14 -11 32 -20 39 -20 18 0 18 -10 -2
-38 -21 -31 -54 -29 -54 3 0 15 -9 31 -25 41 -14 9 -25 20 -25 25 0 16 41 9
67 -11z m-6261 -85 c10 -8 28 -15 39 -15 31 0 29 -54 -2 -58 -16 -2 -22 3 -25
20 -2 13 -15 28 -30 36 -29 14 -37 32 -15 32 7 0 22 -7 33 -15z m7554 10 c0
-3 -14 -14 -31 -24 -17 -11 -36 -29 -43 -41 -15 -30 -31 -26 -31 8 0 21 5 28
25 30 13 2 33 10 44 18 21 14 36 18 36 9z m-6281 -121 c6 -13 22 -29 36 -34
15 -6 23 -14 20 -20 -9 -15 -38 -12 -61 5 -10 8 -29 15 -41 15 -28 0 -30 23
-5 48 21 23 36 19 51 -14z m5024 -15 c-3 -11 -14 -19 -27 -19 -11 0 -30 -7
-40 -15 -11 -8 -29 -15 -39 -15 -16 0 -17 3 -7 15 7 8 19 15 26 15 8 0 20 12
27 28 6 15 16 30 22 34 15 11 43 -21 38 -43z m-6225 -65 c0 -15 -7 -28 -17
-31 -9 -4 -29 -15 -44 -26 -16 -10 -31 -17 -33 -14 -3 3 6 13 20 22 14 10 26
26 26 38 0 20 29 49 41 41 4 -2 7 -15 7 -30z m7407 7 c-4 -14 3 -26 27 -44 32
-26 32 -53 0 -29 -9 7 -29 18 -44 25 -42 17 -38 67 4 67 14 0 18 -5 13 -19z
m-1015 -151 c0 -5 -5 -10 -11 -10 -5 0 -7 5 -4 10 3 6 8 10 11 10 2 0 4 -4 4
-10z m-6185 -60 c-3 -5 -13 -10 -21 -10 -8 0 -12 5 -9 10 3 6 13 10 21 10 8 0
12 -4 9 -10z m6980 0 c-3 -5 -14 -10 -23 -10 -15 0 -15 2 -2 10 20 13 33 13
25 0z m-6300 -60 c-3 -5 -11 -10 -16 -10 -6 0 -7 5 -4 10 3 6 11 10 16 10 6 0
7 -4 4 -10z m5610 0 c-3 -5 -10 -10 -16 -10 -5 0 -9 5 -9 10 0 6 7 10 16 10 8
0 12 -4 9 -10z m-6185 -40 c0 -5 -5 -10 -11 -10 -5 0 -7 5 -4 10 3 6 8 10 11
10 2 0 4 -4 4 -10z m6760 6 c0 -3 -4 -8 -10 -11 -5 -3 -10 -1 -10 4 0 6 5 11
10 11 6 0 10 -2 10 -4z m-3366 -148 c-16 -13 -31 -21 -34 -19 -3 2 -16 12 -29
22 l-24 19 58 0 58 0 -29 -22z m-2994 -22 c0 -7 9 -25 21 -40 29 -37 19 -56
-12 -22 -14 15 -32 28 -40 29 -32 5 -41 18 -22 33 23 17 53 18 53 0z m5998 -4
c2 -7 -9 -17 -26 -23 -17 -6 -38 -22 -47 -36 -9 -13 -19 -22 -22 -19 -3 2 4
17 14 33 11 15 23 36 26 46 8 21 48 20 55 -1z m-6139 -1 c12 -8 7 -14 -21 -30
-19 -12 -40 -32 -46 -46 -6 -14 -15 -25 -20 -25 -18 0 -21 13 -7 34 8 11 15
30 15 42 0 11 3 24 7 27 9 10 56 8 72 -2z m6301 -11 c0 -12 7 -31 15 -44 14
-20 14 -25 1 -35 -17 -14 -36 -7 -36 13 0 18 -37 49 -49 42 -5 -3 -11 0 -14 6
-5 18 23 37 56 38 21 0 27 -5 27 -20z m-2454 -252 c2 -18 11 -38 19 -44 20
-15 19 -31 -3 -43 -23 -12 -64 -3 -55 12 3 5 6 26 5 45 -1 34 15 79 25 68 3
-3 7 -20 9 -38z m-1441 -30 c3 -61 -6 -70 -53 -59 -31 8 -32 17 -4 36 12 9 22
25 22 35 0 28 11 51 23 47 5 -1 11 -28 12 -59z m1635 -98 c-50 -44 -62 -47
-81 -24 -18 22 1 50 33 46 13 -2 37 4 53 12 46 24 43 9 -5 -34z m-1815 25 c17
-1 35 -3 42 -4 8 -1 8 -7 0 -26 -15 -31 -46 -43 -61 -23 -6 8 -23 23 -38 32
-16 10 -28 23 -28 28 0 6 11 7 28 3 15 -4 41 -8 57 -10z m585 -105 c0 -5 -8
-10 -17 -10 -15 0 -16 2 -3 10 19 12 20 12 20 0z m625 0 c-3 -5 -11 -10 -16
-10 -6 0 -7 5 -4 10 3 6 11 10 16 10 6 0 7 -4 4 -10z m-255 -92 c0 -12 -32
-39 -43 -35 -6 2 -12 20 -13 40 0 21 -3 40 -7 43 -12 12 -28 -9 -26 -34 4 -35
-7 -53 -29 -45 -31 12 -29 23 12 68 l41 45 32 -37 c18 -21 32 -41 33 -45z
m-1040 -108 c0 -5 -5 -10 -11 -10 -5 0 -7 5 -4 10 3 6 8 10 11 10 2 0 4 -4 4
-10z m1950 0 c0 -5 -5 -10 -11 -10 -5 0 -7 5 -4 10 3 6 8 10 11 10 2 0 4 -4 4
-10z m-970 -24 c0 -3 -4 -8 -10 -11 -5 -3 -10 -1 -10 4 0 6 5 11 10 11 6 0 10
-2 10 -4z m-1025 -126 c-3 -5 -11 -10 -16 -10 -6 0 -7 5 -4 10 3 6 11 10 16
10 6 0 7 -4 4 -10z m2045 0 c0 -5 -4 -10 -10 -10 -5 0 -10 5 -10 10 0 6 5 10
10 10 6 0 10 -4 10 -10z m-1080 -164 c0 -3 -4 -8 -10 -11 -5 -3 -10 -1 -10 4
0 6 5 11 10 11 6 0 10 -2 10 -4z m120 0 c0 -3 -4 -8 -10 -11 -5 -3 -10 -1 -10
4 0 6 5 11 10 11 6 0 10 -2 10 -4z m-1160 -101 c0 -35 -26 -43 -51 -16 -11 12
-34 22 -52 23 -18 1 -6 4 28 8 33 4 63 7 68 8 4 1 7 -9 7 -23z m2274 7 c-18
-2 -40 -12 -50 -23 -29 -32 -65 -19 -45 18 7 15 19 17 68 13 38 -3 47 -5 27
-8z m-1288 -59 c-10 -10 -19 5 -10 18 6 11 8 11 12 0 2 -7 1 -15 -2 -18z m216
5 c-7 -7 -12 -8 -12 -2 0 14 12 26 19 19 2 -3 -1 -11 -7 -17z m-1132 -89 c8
-15 2 -26 -31 -60 -43 -44 -63 -46 -34 -3 9 14 14 35 11 47 -11 44 33 57 54
16z m2092 -6 c-2 -18 3 -35 13 -43 20 -16 19 -36 -2 -44 -10 -4 -20 -1 -26 10
-5 9 -18 25 -28 35 -16 16 -17 23 -8 42 25 46 56 47 51 0z m-1692 -153 c0 -5
-7 -10 -16 -10 -8 0 -12 5 -9 10 3 6 10 10 16 10 5 0 9 -4 9 -10z m480 -44
l25 -18 -30 7 c-16 4 -47 8 -68 10 -52 4 -55 10 -16 35 33 19 35 19 49 2 8
-10 26 -26 40 -36z m387 20 c-2 -6 -19 -12 -37 -14 -19 -2 -43 -10 -54 -18
-41 -28 -38 -13 5 25 38 33 47 37 67 28 12 -6 21 -15 19 -21z m393 19 c-7 -8
-17 -15 -22 -15 -6 0 -5 7 2 15 7 8 17 15 22 15 6 0 5 -7 -2 -15z m-950 -59
c0 -3 -11 -17 -25 -32 -14 -15 -25 -36 -25 -48 0 -12 -4 -27 -9 -35 -6 -9 -10
4 -12 39 -4 47 -2 53 21 66 25 13 50 18 50 10z m677 -9 c15 -9 19 -16 13 -26
-4 -8 -6 -30 -3 -49 5 -27 3 -34 -8 -30 -7 2 -15 18 -16 34 -1 16 -10 34 -19
41 -9 7 -14 19 -11 28 7 18 15 18 44 2z m-517 -191 c20 -63 46 -74 150 -67 8
1 29 -1 45 -5 48 -9 85 11 102 55 15 37 47 59 58 40 3 -4 -4 -27 -15 -49 -18
-35 -19 -47 -10 -74 16 -48 47 -72 116 -90 92 -24 109 -21 158 24 l43 39 16
-35 c10 -19 31 -43 49 -52 17 -9 51 -35 75 -56 24 -22 54 -41 66 -42 12 -1 26
-3 30 -3 5 -1 -5 -13 -22 -27 -17 -14 -31 -35 -31 -47 1 -49 39 -160 64 -186
34 -35 33 -44 -7 -78 -19 -15 -46 -53 -60 -85 -23 -48 -25 -61 -16 -87 15 -43
10 -51 -57 -96 -33 -21 -75 -56 -94 -77 -31 -33 -49 -42 -130 -64 -63 -17
-107 -23 -130 -19 -19 3 -56 9 -82 11 -41 5 -52 11 -78 47 -37 50 -38 70 -5
103 22 22 32 25 88 22 l62 -3 23 -47 c25 -54 62 -72 90 -44 22 22 5 70 -26 74
-19 3 -22 10 -22 47 0 54 -20 77 -60 69 -24 -5 -31 -2 -44 25 -16 29 -18 30
-84 30 -37 0 -87 0 -112 1 -144 1 -181 -4 -202 -29 -11 -15 -31 -26 -48 -27
-42 -3 -50 -11 -50 -52 0 -44 -8 -57 -37 -66 -50 -16 -10 -95 40 -82 16 4 27
16 31 32 4 14 18 37 31 50 20 20 34 24 84 24 54 0 62 -3 77 -25 13 -21 14 -30
5 -53 -25 -57 -57 -85 -108 -93 -26 -5 -62 -11 -80 -15 -20 -4 -68 3 -135 21
-88 23 -106 31 -119 54 -9 15 -49 49 -88 76 l-73 48 7 47 c5 40 2 56 -20 101
-15 30 -40 64 -56 77 -36 29 -36 46 -4 75 15 13 31 45 40 77 30 110 30 114 -5
153 l-32 37 31 0 c23 0 44 11 74 39 23 21 57 46 74 55 19 10 42 34 54 58 l21
42 28 -31 c52 -58 82 -64 178 -37 95 26 124 81 85 161 -16 34 -16 36 2 49 27
20 32 18 45 -20z"/>
<path d="M7878 9103 c-8 -10 -19 -27 -22 -39 -4 -12 -24 -35 -46 -53 -48 -39
-52 -74 -15 -128 49 -73 155 -47 155 39 0 28 7 49 25 70 29 35 31 49 8 86 -9
15 -17 28 -17 29 -1 0 -17 4 -36 8 -28 5 -39 2 -52 -12z"/>
<path d="M4843 9110 c-46 -19 -56 -74 -19 -109 19 -18 24 -33 23 -63 -1 -34 4
-45 32 -70 45 -40 96 -37 129 9 12 18 22 41 22 53 0 33 -26 75 -54 88 -14 6
-32 28 -41 49 -22 53 -43 63 -92 43z"/>
<path d="M5646 7673 c3 -16 9 -42 14 -59 4 -17 5 -43 3 -58 -3 -16 3 -39 16
-61 26 -45 26 -55 0 -55 -31 0 -88 -30 -100 -52 -14 -27 -39 -124 -39 -154 0
-56 65 -109 121 -100 26 4 30 2 27 -17 -3 -19 -9 -22 -57 -23 -48 -1 -57 -4
-84 -34 -28 -31 -29 -36 -22 -95 l6 -62 -45 -17 c-85 -32 -110 -100 -61 -166
19 -25 22 -37 14 -47 -19 -22 -43 -14 -64 20 -25 40 -67 61 -103 52 -15 -4
-53 -33 -85 -65 -57 -57 -59 -60 -54 -102 13 -102 16 -93 -28 -93 -24 0 -54
-9 -76 -22 -20 -13 -42 -23 -48 -23 -6 0 -28 -7 -49 -16 l-37 -15 22 -19 c12
-9 39 -21 60 -25 20 -4 49 -15 64 -26 16 -11 44 -19 69 -19 36 0 41 -2 35 -17
-30 -70 -17 -112 56 -184 53 -52 65 -59 100 -59 40 0 44 3 104 72 13 15 19 17
30 8 12 -10 11 -17 -10 -44 -50 -66 -18 -152 66 -178 l40 -12 -7 -63 c-6 -62
-6 -63 30 -99 34 -34 39 -36 87 -32 46 5 50 4 47 -16 -2 -17 -12 -22 -52 -27
-37 -4 -55 -12 -72 -33 -28 -32 -30 -65 -7 -147 20 -71 65 -119 113 -119 36 0
36 -3 9 -47 -14 -22 -20 -44 -17 -65 3 -18 -1 -56 -9 -85 -22 -87 -7 -93 66
-29 27 24 58 47 69 50 10 4 26 22 35 41 9 19 21 35 26 35 5 0 25 -16 44 -35
40 -40 65 -43 149 -21 79 21 85 25 102 61 21 43 20 53 -4 98 -23 42 -21 52 10
60 17 4 24 -2 37 -34 30 -75 104 -90 174 -35 46 37 41 38 102 -11 41 -33 91
-31 128 6 16 16 29 36 29 45 0 22 35 39 48 23 8 -9 6 -21 -8 -42 -25 -38 -25
-69 0 -110 22 -36 30 -40 108 -61 88 -23 110 -19 153 27 l38 41 20 -40 c11
-22 30 -44 41 -47 12 -4 44 -27 71 -51 27 -24 54 -44 58 -44 5 0 4 17 -1 38
-5 20 -12 63 -14 95 -2 37 -11 71 -24 93 l-21 34 41 6 c66 11 93 40 114 127
16 64 17 80 6 107 -18 43 -56 70 -100 70 -41 0 -51 6 -43 26 3 9 21 14 55 14
89 0 121 38 111 132 l-5 55 43 17 c58 23 77 42 85 82 7 39 0 64 -27 95 -23 27
-21 39 9 50 18 7 24 3 37 -21 21 -40 53 -60 96 -60 31 0 45 8 93 55 58 57 73
88 62 130 -20 83 -23 75 31 75 27 0 54 5 60 11 6 6 40 21 75 33 81 28 82 45 2
71 -34 11 -70 27 -79 35 -11 9 -35 14 -61 13 -49 -2 -49 -2 -32 43 18 51 -2
100 -67 164 -48 47 -60 55 -95 55 -41 0 -84 -30 -96 -67 -6 -19 -39 -25 -49
-8 -4 6 5 24 19 41 57 68 16 151 -90 183 -20 6 -20 10 -12 56 16 87 -31 146
-112 142 -27 -1 -51 2 -54 6 -10 17 14 35 45 34 45 -1 84 21 99 59 15 35 4 96
-31 177 -19 44 -62 72 -109 72 l-21 0 21 30 c14 19 23 49 25 82 1 29 6 74 10
101 9 58 -6 63 -51 16 -16 -17 -46 -39 -66 -50 -21 -11 -45 -34 -54 -52 -9
-17 -18 -34 -20 -36 -3 -3 -21 11 -42 31 -46 44 -71 50 -130 33 -26 -7 -60
-16 -75 -19 -32 -7 -67 -58 -67 -96 0 -14 9 -38 20 -55 14 -21 16 -33 8 -42
-20 -24 -46 -15 -58 22 -23 71 -98 87 -166 35 -21 -16 -43 -29 -49 -29 -5 0
-28 13 -49 29 -68 52 -143 36 -166 -35 -7 -22 -18 -35 -29 -35 -29 0 -31 10
-9 52 18 34 19 45 9 77 -15 53 -38 70 -122 91 -82 21 -114 15 -158 -34 -14
-14 -27 -26 -31 -26 -3 0 -14 16 -23 35 -10 20 -31 42 -54 54 -21 10 -51 33
-67 50 -38 40 -59 41 -50 4z m334 -393 c0 -17 8 -34 19 -42 27 -19 12 -43 -21
-35 -23 6 -25 11 -23 59 2 62 2 61 15 53 6 -3 10 -19 10 -35z m864 -12 c0 -49
-2 -53 -32 -65 -27 -11 -32 -11 -32 2 0 8 9 19 20 25 11 6 20 21 20 35 0 27 9
55 19 55 3 0 6 -23 5 -52z m-985 -42 c7 -8 23 -17 37 -20 20 -5 25 -12 22 -34
-2 -19 -9 -28 -25 -30 -17 -3 -21 0 -17 12 4 10 -5 27 -25 45 -17 16 -31 32
-31 35 0 12 28 6 39 -8z m1094 -14 c-17 -15 -33 -36 -35 -47 -2 -11 -11 -21
-21 -23 -13 -3 -17 3 -17 27 0 23 5 31 18 31 9 0 28 9 42 20 38 30 49 23 13
-8z m-778 -47 c-39 -33 -64 -37 -90 -13 -14 13 15 28 42 22 12 -3 32 1 45 10
41 29 44 16 3 -19z m458 23 c2 -7 20 -13 40 -13 44 0 50 -14 14 -35 -24 -13
-27 -12 -53 13 -15 15 -31 27 -35 27 -5 0 -9 5 -9 10 0 15 38 12 43 -2z m-725
-168 c-2 -15 -15 -26 -38 -35 -19 -7 -44 -16 -55 -20 -16 -6 -18 -5 -8 5 6 7
22 18 35 24 12 6 25 20 27 31 8 43 46 38 39 -5z m1027 7 c6 -12 23 -28 38 -35
20 -10 26 -17 18 -25 -7 -7 -18 -5 -35 7 -14 9 -34 16 -46 16 -15 0 -20 7 -20
28 0 47 26 52 45 9z m-697 -139 c-2 -6 -10 -14 -16 -16 -7 -2 -10 2 -6 12 7
18 28 22 22 4z m343 -11 c-13 -13 -26 -3 -16 12 3 6 11 8 17 5 6 -4 6 -10 -1
-17z m-499 -89 c-9 -9 -15 -9 -24 0 -9 9 -7 12 12 12 19 0 21 -3 12 -12z m658
2 c-20 -13 -33 -13 -25 0 3 6 14 10 23 10 15 0 15 -2 2 -10z m-455 -50 c-3 -5
-11 -10 -16 -10 -6 0 -7 5 -4 10 3 6 11 10 16 10 6 0 7 -4 4 -10z m245 0 c0
-5 -5 -10 -11 -10 -5 0 -7 5 -4 10 3 6 8 10 11 10 2 0 4 -4 4 -10z m110 -60
c0 -5 -5 -10 -11 -10 -5 0 -7 5 -4 10 3 6 8 10 11 10 2 0 4 -4 4 -10z m-1013
-62 c0 -7 3 -29 6 -49 7 -36 5 -39 -55 -66 -11 -5 -3 26 10 39 7 7 12 26 12
43 0 31 6 45 20 45 4 0 7 -6 7 -12z m1569 -14 c-5 -19 -1 -33 13 -48 14 -14
17 -26 11 -36 -12 -20 -65 4 -56 26 3 9 6 31 6 50 0 25 4 34 16 34 12 0 15 -6
10 -26z m-1286 -114 c0 -5 -7 -10 -15 -10 -8 0 -15 5 -15 10 0 6 7 10 15 10 8
0 15 -4 15 -10z m558 -16 c2 -10 13 -29 25 -42 l21 -22 -21 -28 c-11 -15 -23
-37 -27 -50 -7 -20 -14 -22 -72 -22 -47 0 -64 4 -64 14 0 7 -10 26 -22 41 -17
22 -19 31 -9 44 6 9 18 30 25 46 19 41 17 40 83 39 49 -1 59 -4 61 -20z m447
16 c-3 -5 -11 -10 -16 -10 -6 0 -7 5 -4 10 3 6 11 10 16 10 6 0 7 -4 4 -10z
m488 -17 c-7 -2 -27 -14 -45 -26 -26 -18 -38 -20 -55 -12 -13 5 -23 15 -23 21
0 18 29 25 49 13 13 -9 24 -8 47 4 16 8 31 13 34 10 3 -3 0 -8 -7 -10z m-1962
-3 c12 -7 25 -7 37 -1 10 5 24 6 31 2 9 -6 5 -14 -15 -30 -23 -18 -29 -19 -43
-7 -9 7 -29 21 -46 29 -28 15 -28 16 -7 17 13 0 32 -5 43 -10z m1329 -4 c0 -3
-4 -8 -10 -11 -5 -3 -10 -1 -10 4 0 6 5 11 10 11 6 0 10 -2 10 -4z m-1266
-101 c25 -19 14 -29 -32 -32 -20 -1 -50 -4 -67 -8 -25 -5 -21 -1 20 23 60 36
55 35 79 17z m1845 1 c7 -8 23 -17 36 -20 14 -4 25 -11 25 -16 0 -13 -37 -13
-45 1 -4 6 -22 8 -46 4 -44 -8 -51 4 -16 28 28 20 32 20 46 3z m-1299 -26 c0
-5 -5 -10 -11 -10 -5 0 -7 5 -4 10 3 6 8 10 11 10 2 0 4 -4 4 -10z m715 0 c-3
-5 -11 -10 -16 -10 -6 0 -7 5 -4 10 3 6 11 10 16 10 6 0 7 -4 4 -10z m-860
-30 c-3 -5 -11 -10 -16 -10 -6 0 -7 5 -4 10 3 6 11 10 16 10 6 0 7 -4 4 -10z
m1010 0 c-3 -5 -10 -10 -16 -10 -5 0 -9 5 -9 10 0 6 7 10 16 10 8 0 12 -4 9
-10z m-1282 -55 c-5 -18 -7 -31 -12 -72 0 -7 -5 -13 -11 -13 -5 0 -9 16 -8 36
1 24 -4 41 -16 49 -15 12 -15 14 -1 29 22 22 58 1 48 -29z m1590 28 c-4 -10
-13 -24 -21 -32 -7 -8 -11 -23 -8 -35 5 -20 -8 -56 -17 -46 -2 3 -7 25 -10 50
-6 42 -4 47 21 63 35 21 43 21 35 0z m-1043 -157 c0 -3 -4 -8 -10 -11 -5 -3
-10 -1 -10 4 0 6 5 11 10 11 6 0 10 -2 10 -4z m460 0 c0 -3 -4 -8 -10 -11 -5
-3 -10 -1 -10 4 0 6 5 11 10 11 6 0 10 -2 10 -4z m-350 -60 c0 -3 -4 -8 -10
-11 -5 -3 -10 -1 -10 4 0 6 5 11 10 11 6 0 10 -2 10 -4z m250 0 c0 -2 -7 -6
-15 -10 -8 -3 -15 -1 -15 4 0 6 7 10 15 10 8 0 15 -2 15 -4z m-455 -56 c-3 -5
-14 -10 -23 -10 -15 0 -15 2 -2 10 20 13 33 13 25 0z m655 0 c0 -5 -7 -10 -16
-10 -8 0 -12 5 -9 10 3 6 10 10 16 10 5 0 9 -4 9 -10z m-505 -90 c-3 -5 -10
-10 -16 -10 -5 0 -9 5 -9 10 0 6 7 10 16 10 8 0 12 -4 9 -10z m350 0 c-3 -5
-11 -10 -16 -10 -6 0 -7 5 -4 10 3 6 11 10 16 10 6 0 7 -4 4 -10z m-712 -102
c32 -11 37 -17 35 -38 -4 -37 -34 -37 -46 -1 -6 17 -17 31 -25 31 -8 0 -21 8
-28 17 -15 18 -16 18 64 -9z m1094 -3 c-20 -14 -37 -32 -37 -40 0 -8 -2 -15
-4 -15 -2 0 -11 -3 -20 -6 -13 -5 -16 1 -16 25 0 26 4 31 23 31 13 0 32 7 43
15 10 8 26 15 34 15 8 0 -2 -11 -23 -25z m-768 -204 c-6 -2 -21 2 -34 9 -13 7
-32 10 -43 8 -22 -6 -54 11 -36 18 6 3 19 11 30 18 16 12 23 10 56 -18 20 -17
32 -33 27 -35z m-279 24 c0 -19 -9 -28 -34 -39 -18 -8 -37 -19 -40 -25 -4 -6
-13 -11 -19 -11 -7 0 3 14 21 31 17 16 32 38 32 49 0 18 18 31 33 23 4 -2 7
-15 7 -28z m782 24 c17 -9 18 -13 7 -20 -8 -5 -24 -9 -37 -9 -13 0 -36 -7 -52
-15 -17 -9 -30 -11 -30 -6 0 5 8 12 19 16 10 3 26 14 36 25 21 23 29 24 57 9z
m218 -19 c0 -10 14 -30 31 -43 17 -13 27 -27 21 -31 -5 -3 -21 3 -35 14 -14
11 -32 20 -41 20 -11 0 -16 9 -16 28 0 16 3 31 6 35 11 11 34 -5 34 -23z
m-910 -49 c-5 -11 -15 -23 -20 -26 -6 -3 -10 -16 -10 -29 0 -12 -6 -31 -14
-41 -12 -16 -13 -12 -13 37 0 45 3 56 21 65 36 18 48 16 36 -6z m818 8 c13 -8
16 -21 14 -60 -4 -50 -22 -70 -22 -24 0 14 -9 34 -20 45 -28 28 -26 39 8 49 1
1 10 -4 20 -10z"/>
<path d="M6373 6448 c-15 -7 -23 -20 -23 -37 0 -30 7 -42 36 -57 49 -28 84 56
38 91 -22 17 -22 17 -51 3z"/>
<path d="M9283 6490 c-12 -5 -31 -26 -40 -47 -18 -37 -18 -39 5 -80 29 -53 71
-70 116 -47 18 10 52 16 81 15 48 -2 52 0 67 32 14 29 14 36 1 62 -22 44 -39
54 -82 48 -24 -3 -49 1 -69 11 -35 18 -47 19 -79 6z"/>
<path d="M3426 6483 c-18 -9 -43 -13 -66 -10 -44 6 -56 0 -75 -37 -13 -25 -13
-32 6 -68 20 -39 21 -40 67 -36 31 2 60 -3 85 -15 32 -15 41 -16 64 -5 15 7
36 28 46 46 19 32 19 34 1 73 -30 67 -70 84 -128 52z"/>
<path d="M4865 3928 c-19 -23 -25 -38 -20 -56 4 -17 -1 -34 -20 -57 -14 -19
-25 -42 -25 -52 0 -31 42 -73 75 -75 40 -3 51 5 65 46 6 18 21 38 35 44 54 25
71 108 30 142 -8 7 -15 19 -15 26 0 10 -14 14 -49 14 -43 0 -53 -4 -76 -32z"/>
<path d="M7791 3926 c-29 -46 -27 -82 7 -115 15 -15 32 -30 37 -32 6 -2 19
-22 30 -44 18 -35 25 -40 59 -43 32 -3 43 1 58 20 24 31 23 48 -7 88 -14 19
-25 47 -25 62 0 36 -24 83 -45 92 -9 3 -34 6 -55 6 -33 0 -41 -5 -59 -34z"/>
<path d="M4130 10970 c-19 -11 -50 -19 -68 -20 -76 -1 -122 -44 -122 -116 0
-28 -5 -37 -27 -46 -16 -7 -43 -23 -60 -36 l-32 -24 -34 21 c-19 12 -46 21
-60 21 -29 0 -76 -36 -96 -73 -8 -14 -27 -31 -43 -38 -55 -23 -66 -48 -62
-151 3 -89 4 -94 34 -120 17 -16 41 -28 53 -28 13 0 36 -13 52 -30 31 -33 50
-36 90 -18 21 10 31 9 53 -4 29 -17 62 -9 62 15 0 26 20 41 62 46 49 7 59 27
34 66 -21 32 -49 32 -90 0 -41 -31 -49 -31 -110 3 -81 44 -81 98 0 132 54 24
82 25 110 6 11 -8 37 -18 59 -22 27 -5 50 -19 77 -48 43 -47 43 -47 23 21 -13
45 -13 54 0 86 8 20 15 52 15 71 0 28 8 41 42 70 73 63 141 39 132 -46 -9 -78
-12 -84 -54 -103 -23 -10 -45 -26 -50 -35 -10 -19 7 -58 32 -73 20 -13 48 7
48 34 0 18 15 24 50 21 42 -4 60 8 60 42 0 27 7 40 32 60 32 25 32 25 20 71
-8 32 -9 52 -2 65 27 51 3 113 -53 135 -22 9 -54 27 -70 41 -34 29 -60 30
-107 4z"/>
<path d="M8553 10966 c-15 -13 -46 -32 -68 -42 -55 -26 -72 -63 -52 -113 10
-24 12 -43 6 -52 -5 -8 -9 -28 -9 -46 0 -24 7 -37 30 -53 23 -17 29 -27 24
-45 -8 -33 29 -69 65 -62 30 6 41 1 57 -27 27 -50 74 -41 74 14 0 30 -20 51
-66 69 -29 11 -33 18 -39 66 -7 58 3 88 35 105 32 17 64 11 103 -21 30 -25 37
-37 37 -67 0 -19 5 -50 12 -68 9 -26 9 -45 -2 -88 -7 -31 -11 -58 -8 -61 3 -3
23 12 45 33 26 25 54 42 79 46 21 4 47 14 58 22 27 18 55 18 102 -2 45 -19 54
-29 54 -65 0 -30 -21 -51 -76 -79 -50 -26 -59 -25 -100 6 -41 32 -80 27 -90
-11 -9 -35 13 -58 49 -52 25 3 33 -1 49 -30 27 -44 50 -56 74 -38 22 17 60 19
69 5 12 -20 51 -10 77 20 16 18 36 30 51 30 13 0 37 10 52 22 25 20 27 25 21
74 -3 29 -2 63 3 76 14 38 -9 89 -56 120 -23 16 -51 43 -62 61 -36 58 -90 71
-147 36 l-34 -20 -32 24 c-18 14 -43 28 -55 32 -23 6 -27 14 -24 47 1 10 -6
34 -15 54 -19 40 -62 64 -114 64 -16 0 -47 9 -67 20 -49 26 -75 25 -110 -4z"/>
<path d="M1436 6854 c-15 -14 -41 -28 -57 -31 -43 -8 -69 -47 -69 -100 0 -24
-9 -61 -20 -83 -11 -22 -20 -46 -20 -55 0 -29 31 -76 62 -95 31 -18 31 -20 29
-87 -1 -37 -7 -70 -12 -71 -5 -2 -23 -15 -39 -28 -39 -34 -46 -74 -22 -127 11
-23 22 -66 25 -96 3 -44 10 -60 31 -78 15 -13 35 -23 45 -23 10 0 35 -13 56
-30 48 -38 78 -38 118 1 17 17 49 37 71 43 38 11 41 15 44 49 3 29 9 40 33 52
33 17 38 49 14 81 -19 25 -19 43 2 66 13 15 14 23 5 43 -15 33 -37 41 -65 22
-18 -12 -22 -24 -22 -73 l0 -57 -55 -34 c-58 -35 -80 -35 -113 -3 -16 15 -17
24 -9 71 7 37 17 58 32 69 13 8 40 31 60 51 23 22 56 41 84 48 25 6 46 15 46
20 0 10 -54 31 -80 31 -9 0 -37 20 -61 43 -24 24 -50 46 -57 48 -16 5 -35 94
-26 121 6 19 53 48 78 48 9 0 36 -15 62 -32 46 -33 46 -34 41 -79 -7 -61 12
-91 56 -87 39 4 47 33 18 64 -19 21 -19 22 0 50 28 43 24 72 -11 92 -23 13
-30 24 -30 49 0 35 -29 63 -65 63 -12 0 -35 16 -52 35 -39 44 -84 47 -127 9z"/>
<path d="M11234 6851 c-16 -17 -47 -36 -69 -43 -35 -11 -40 -18 -47 -53 -6
-30 -16 -44 -39 -57 -25 -15 -29 -22 -24 -40 4 -13 14 -30 21 -39 18 -20 18
-43 -1 -59 -35 -29 -7 -74 42 -68 27 3 28 5 31 66 l3 62 52 35 c58 39 73 42
106 19 22 -16 23 -22 18 -78 -4 -44 -10 -64 -23 -71 -10 -5 -39 -29 -64 -52
-26 -24 -51 -43 -56 -43 -25 0 -84 -22 -79 -30 3 -4 27 -13 54 -20 33 -8 63
-24 88 -48 21 -20 47 -42 58 -48 14 -8 19 -25 23 -70 3 -50 1 -62 -17 -78 -28
-26 -60 -23 -115 9 l-46 27 0 59 c0 52 -3 60 -26 76 -46 30 -85 -18 -48 -59
18 -19 18 -21 -4 -59 -26 -45 -18 -73 24 -89 19 -8 24 -17 24 -44 0 -38 12
-51 55 -62 17 -4 47 -22 68 -40 45 -41 75 -43 116 -8 17 14 47 30 66 35 42 12
64 49 63 106 0 23 7 52 16 64 19 27 21 87 5 123 -6 13 -26 32 -43 41 -31 17
-32 19 -32 86 0 66 1 69 28 80 57 23 75 92 42 154 -9 17 -18 52 -19 78 -2 60
-28 96 -80 114 -22 7 -49 22 -60 33 -32 30 -77 26 -111 -9z"/>
<path d="M3792 2493 c-18 -13 -28 -14 -48 -4 -38 17 -53 14 -91 -19 -18 -16
-44 -30 -56 -30 -22 0 -66 -31 -68 -48 0 -4 -2 -43 -3 -87 -3 -97 10 -127 64
-155 22 -11 40 -25 40 -30 0 -5 14 -25 30 -44 41 -47 78 -54 130 -25 l40 23
30 -22 c16 -12 41 -27 55 -32 21 -8 25 -16 25 -51 0 -33 6 -47 34 -75 28 -28
42 -34 75 -34 25 0 61 -10 89 -25 61 -33 72 -32 122 10 23 19 50 35 60 35 39
0 64 75 41 118 -6 11 -5 36 2 66 11 48 11 49 -21 76 -23 19 -32 35 -32 56 0
41 -16 54 -66 54 -38 0 -43 3 -53 30 -12 37 -44 40 -66 6 -23 -34 -6 -62 51
-86 44 -19 44 -19 45 -72 2 -74 0 -81 -24 -100 -32 -25 -58 -22 -105 13 -34
25 -42 37 -42 62 -1 18 -7 50 -15 72 -12 35 -12 46 1 93 9 29 13 56 10 60 -4
3 -26 -13 -49 -36 -24 -24 -52 -42 -65 -42 -12 0 -41 -10 -65 -21 -44 -21 -45
-21 -91 -4 -90 35 -95 91 -10 137 61 34 81 35 124 3 40 -30 52 -31 73 -7 34
37 9 77 -47 77 -21 0 -33 7 -41 21 -28 56 -45 63 -83 37z"/>
<path d="M8924 2469 c-22 -35 -29 -40 -51 -34 -51 12 -70 -35 -30 -73 29 -28
36 -28 77 3 42 31 58 31 120 0 45 -23 50 -29 50 -59 0 -40 -30 -69 -90 -87
-31 -10 -42 -8 -78 10 -23 12 -51 21 -64 21 -13 0 -41 18 -66 43 l-44 42 8
-35 c9 -37 9 -83 -2 -168 -5 -48 -10 -56 -51 -87 -53 -40 -80 -44 -112 -14
-20 19 -21 27 -15 77 3 32 9 61 11 65 3 5 25 17 49 27 37 16 44 24 44 48 0 63
-52 83 -78 29 -11 -23 -19 -27 -56 -27 -50 0 -67 -15 -64 -55 2 -19 -5 -32
-25 -47 -28 -20 -34 -52 -18 -93 5 -13 3 -31 -6 -49 -9 -17 -12 -39 -8 -55 8
-33 43 -71 66 -71 9 0 36 -16 59 -35 49 -41 59 -42 125 -10 28 14 67 25 88 25
56 0 102 47 94 95 -6 35 11 65 36 65 6 0 28 12 49 27 l39 26 40 -22 c60 -34
111 -15 148 56 6 13 29 32 51 43 21 11 41 28 43 37 3 10 5 60 5 110 0 83 -3
95 -24 118 -14 15 -34 25 -52 25 -18 0 -38 10 -57 30 -31 32 -50 36 -89 19
-19 -9 -29 -8 -47 5 -35 24 -46 20 -75 -25z"/>
<path d="M2814 63 c-27 -4 -54 -33 -54 -58 0 -12 43 -4 56 10 9 8 24 15 35 15
25 0 59 17 59 30 0 10 -34 11 -96 3z"/>
</g>
</svg>
